<svg width="1920" height="1518" viewBox="0 0 1920 1518" fill="none" xmlns="http://www.w3.org/2000/svg">
<mask id="mask0_830_1584" style="mask-type:alpha" maskUnits="userSpaceOnUse" x="0" y="0" width="1920" height="1518">
<rect width="1920" height="1518" fill="#D9D9D9"/>
</mask>
<g mask="url(#mask0_830_1584)">
<path d="M2410 128C2345.56 141.333 2281.11 141.333 2216.67 128C2152.22 114.667 2087.78 114.667 2023.33 128C1958.89 141.333 1894.44 141.333 1830 128C1765.56 114.667 1701.11 114.667 1636.67 128C1572.22 141.333 1507.78 141.333 1443.33 128C1378.89 114.667 1314.44 114.667 1250 128C1185.56 141.333 1121.11 141.333 1056.67 128C992.222 114.667 927.778 114.667 863.333 128C798.889 141.333 734.444 141.333 670 128C605.556 114.667 541.111 114.667 476.667 128C412.222 141.333 347.778 141.333 283.333 128C218.889 114.667 154.444 114.667 90 128C25.5556 141.333 -38.8888 141.333 -103.333 128C-167.778 114.667 -232.222 114.667 -296.667 128C-361.111 141.333 -425.556 141.333 -490 128" stroke="#F9F5EC" stroke-width="143"/>
<path d="M0.5 138.5L1919.5 138.5L1919.5 1777.5L0.5 1777.5L0.5 138.5Z" fill="#F9F5EC" stroke="#F9F5EC"/>
</g>
</svg>
