<svg width="271" height="197" viewBox="0 0 271 197" fill="none" xmlns="http://www.w3.org/2000/svg">
<rect width="271" height="197" rx="22" fill="#E6F0EC"/>
<path d="M167.361 171.047L163.924 160.935L176.676 165.822L167.361 171.047Z" fill="white"/>
<rect x="92.6094" y="39.5" width="83.575" height="116.687" rx="7.5" fill="white" stroke="#71A691" stroke-width="3"/>
<rect x="104.978" y="51.249" width="58.1522" height="13.8883" rx="5.5" fill="white" stroke="#71A691" stroke-width="3"/>
<line x1="123.402" y1="79.8223" x2="148.138" y2="79.8223" stroke="#71A691" stroke-width="3"/>
<line x1="152.953" y1="79.8223" x2="161.885" y2="79.8223" stroke="#71A691" stroke-width="3"/>
<line x1="123.402" y1="79.8223" x2="148.138" y2="79.8223" stroke="#71A691" stroke-width="3"/>
<line x1="123.402" y1="113.6" x2="148.138" y2="113.6" stroke="#71A691" stroke-width="3"/>
<line x1="152.953" y1="79.8223" x2="161.885" y2="79.8223" stroke="#71A691" stroke-width="3"/>
<line x1="152.953" y1="113.6" x2="161.885" y2="113.6" stroke="#71A691" stroke-width="3"/>
<line x1="123.402" y1="89.3672" x2="161.88" y2="89.3672" stroke="#71A691" stroke-width="3"/>
<line x1="123.402" y1="103.318" x2="161.88" y2="103.318" stroke="#71A691" stroke-width="3"/>
<line x1="123.402" y1="127.55" x2="161.88" y2="127.55" stroke="#71A691" stroke-width="3"/>
<line x1="123.402" y1="137.096" x2="139.893" y2="137.096" stroke="#71A691" stroke-width="3"/>
<line x1="144.703" y1="137.096" x2="161.881" y2="137.096" stroke="#71A691" stroke-width="3"/>
<path d="M116.909 85.1774C116.909 88.9308 113.913 91.9387 110.259 91.9387C106.605 91.9387 103.609 88.9308 103.609 85.1774C103.609 81.424 106.605 78.416 110.259 78.416C113.913 78.416 116.909 81.424 116.909 85.1774Z" fill="white" stroke="#71A691" stroke-width="3"/>
<path d="M116.909 107.896C116.909 111.65 113.913 114.657 110.259 114.657C106.605 114.657 103.609 111.65 103.609 107.896C103.609 104.143 106.605 101.135 110.259 101.135C113.913 101.135 116.909 104.143 116.909 107.896Z" fill="white" stroke="#71A691" stroke-width="3"/>
<path d="M116.909 130.615C116.909 134.368 113.913 137.376 110.259 137.376C106.605 137.376 103.609 134.368 103.609 130.615C103.609 126.861 106.605 123.854 110.259 123.854C113.913 123.854 116.909 126.861 116.909 130.615Z" fill="white" stroke="#71A691" stroke-width="3"/>
<mask id="path-19-inside-1_133_351" fill="white">
<path d="M185.92 99.5554C187.377 95.9743 191.446 94.2882 195.009 95.7894L199.439 97.6559C203.001 99.157 204.708 103.277 203.252 106.858L179.322 165.686C178.906 166.709 177.743 167.191 176.725 166.762L169.903 163.887L163.08 161.013C162.062 160.584 161.574 159.407 161.991 158.383L185.92 99.5554Z"/>
</mask>
<path d="M185.92 99.5554C187.377 95.9743 191.446 94.2882 195.009 95.7894L199.439 97.6559C203.001 99.157 204.708 103.277 203.252 106.858L179.322 165.686C178.906 166.709 177.743 167.191 176.725 166.762L169.903 163.887L163.08 161.013C162.062 160.584 161.574 159.407 161.991 158.383L185.92 99.5554Z" fill="white"/>
<path d="M193.878 98.5682L198.308 100.435L200.569 94.877L196.139 93.0105L193.878 98.5682ZM200.487 105.693L176.557 164.521L182.087 166.851L206.016 108.023L200.487 105.693ZM164.755 159.548L188.685 100.72L183.156 98.3905L159.226 157.219L164.755 159.548ZM177.856 163.983L171.033 161.108L168.772 166.666L175.595 169.541L177.856 163.983ZM171.033 161.108L164.21 158.234L161.95 163.792L168.772 166.666L171.033 161.108ZM159.226 157.219C158.185 159.776 159.405 162.719 161.95 163.792L164.21 158.234C164.719 158.448 164.963 159.037 164.755 159.548L159.226 157.219ZM176.557 164.521C176.765 164.01 177.347 163.769 177.856 163.983L175.595 169.541C178.14 170.613 181.046 169.409 182.087 166.851L176.557 164.521ZM198.308 100.435C200.344 101.293 201.32 103.647 200.487 105.693L206.016 108.023C208.097 102.907 205.658 97.0215 200.569 94.877L198.308 100.435ZM196.139 93.0105C191.05 90.866 185.237 93.2747 183.156 98.3905L188.685 100.72C189.517 98.6739 191.843 97.7104 193.878 98.5682L196.139 93.0105Z" fill="#71A691" mask="url(#path-19-inside-1_133_351)"/>
<path d="M182.993 110.594L197.658 116.773M185.863 125.71L179.653 140.975" stroke="#71A691" stroke-width="3" stroke-linecap="round"/>
<path d="M186.028 103.131L200.693 109.31" stroke="#71A691" stroke-width="3"/>
<path d="M177.513 166.299L169.844 169.938C168.251 170.694 166.346 169.892 165.745 168.211L162.848 160.12" stroke="#71A691" stroke-width="3" stroke-linecap="round"/>
</svg>
