<svg width="271" height="197" viewBox="0 0 271 197" fill="none" xmlns="http://www.w3.org/2000/svg">
<rect width="271" height="197" rx="22" fill="#E6F0EC"/>
<path d="M145 116.5L155.501 108L191 155.5L189 162.5L182 164L145 116.5Z" fill="white"/>
<path d="M169.26 79.5687C170.284 102.691 152.074 122.317 128.537 123.359C105 124.401 85.1269 106.46 84.1034 83.3381C83.0799 60.2157 101.29 40.5894 124.827 39.5475C148.364 38.5057 168.237 56.4464 169.26 79.5687Z" fill="white" stroke="#71A691" stroke-width="3"/>
<path d="M160.444 79.9592C161.256 98.2873 146.821 113.852 128.152 114.679C109.483 115.505 93.7296 101.276 92.9183 82.9482C92.1071 64.6202 106.542 49.0551 125.211 48.2287C143.879 47.4024 159.633 61.6312 160.444 79.9592Z" fill="white" stroke="#71A691" stroke-width="3"/>
<mask id="path-5-inside-1_133_378" fill="white">
<ellipse cx="151.976" cy="74.245" rx="1.76481" ry="1.73788" transform="rotate(-2.53448 151.976 74.245)"/>
</mask>
<ellipse cx="151.976" cy="74.245" rx="1.76481" ry="1.73788" transform="rotate(-2.53448 151.976 74.245)" fill="#71A691"/>
<path d="M150.742 74.2997C150.71 73.56 151.283 73.0124 151.92 72.9842L152.186 78.9783C154.771 78.8639 156.854 76.6917 156.736 74.0343L150.742 74.2997ZM151.92 72.9842C152.558 72.9559 153.178 73.4508 153.21 74.1904L147.216 74.4558C147.334 77.1131 149.6 79.0927 152.186 78.9783L151.92 72.9842ZM153.21 74.1904C153.243 74.9301 152.67 75.4777 152.032 75.5059L151.767 69.5118C149.181 69.6262 147.099 71.7984 147.216 74.4558L153.21 74.1904ZM152.032 75.5059C151.394 75.5342 150.775 75.0393 150.742 74.2997L156.736 74.0343C156.619 71.377 154.352 69.3974 151.767 69.5118L152.032 75.5059Z" fill="#71A691" mask="url(#path-5-inside-1_133_378)"/>
<path d="M131.851 56.0186L132.124 56.0855C139.601 57.9245 146.015 62.6253 149.949 69.1487V69.1487" stroke="#71A691" stroke-width="3" stroke-linecap="round"/>
<path d="M146.923 119.51L178.328 161.223C180.646 164.302 185.046 164.951 188.156 162.674V162.674C191.265 160.396 191.907 156.054 189.589 152.975L158.184 111.262" stroke="#71A691" stroke-width="3"/>
<path d="M153.97 129.275L165.438 120.794" stroke="#71A691" stroke-width="3"/>
</svg>
