<svg width="271" height="197" viewBox="0 0 271 197" fill="none" xmlns="http://www.w3.org/2000/svg">
<rect width="271" height="197" rx="22" fill="#E6F0EC"/>
<path fill-rule="evenodd" clip-rule="evenodd" d="M114.981 103.5C114.993 103.168 114.999 102.835 114.999 102.5C114.999 88.969 105.373 78 93.499 78C81.6249 78 71.999 88.969 71.999 102.5C71.999 102.835 72.0049 103.168 72.0166 103.5H114.981Z" fill="white"/>
<path fill-rule="evenodd" clip-rule="evenodd" d="M161.981 103.5C161.993 103.162 161.999 102.822 161.999 102.48C161.999 88.9601 152.373 78 140.499 78C128.625 78 118.999 88.9601 118.999 102.48C118.999 102.822 119.005 103.162 119.017 103.5H161.981Z" fill="white"/>
<path fill-rule="evenodd" clip-rule="evenodd" d="M208.981 103.5C208.993 103.162 208.999 102.822 208.999 102.48C208.999 88.9601 199.373 78 187.499 78C175.625 78 165.999 88.9601 165.999 102.48C165.999 102.822 166.005 103.162 166.017 103.5H208.981Z" fill="white"/>
<path d="M104.912 60.5241C107.293 66.895 104.083 74.1378 97.6984 76.6821C91.3137 79.2265 84.2234 76.0886 81.8421 69.7177C79.4607 63.3468 82.671 56.104 89.0556 53.5596C95.4403 51.0153 102.531 54.1531 104.912 60.5241Z" fill="white" stroke="#71A691" stroke-width="3"/>
<path d="M114.63 102.225L114.63 99.8859C114.63 88.0669 105.325 78.5993 93.7095 78.5993V78.5993C81.7883 78.5993 72.0064 88.5525 72.0064 100.683L72.0064 102.225" stroke="#71A691" stroke-width="3" stroke-linecap="round"/>
<path d="M151.967 60.5241C154.348 66.895 151.138 74.1378 144.753 76.6821C138.369 79.2265 131.278 76.0886 128.897 69.7177C126.516 63.3468 129.726 56.104 136.11 53.5596C142.495 51.0153 149.585 54.1531 151.967 60.5241Z" fill="white" stroke="#71A691" stroke-width="3"/>
<path d="M161.688 102.225L161.688 99.8859C161.688 88.0669 152.383 78.5993 140.768 78.5993V78.5993C128.847 78.5993 119.065 88.5525 119.065 100.683L119.065 102.225" stroke="#71A691" stroke-width="3" stroke-linecap="round"/>
<path d="M199.022 60.5241C201.403 66.895 198.193 74.1378 191.808 76.6821C185.423 79.2265 178.333 76.0886 175.952 69.7177C173.57 63.3468 176.781 56.104 183.165 53.5596C189.55 51.0153 196.64 54.1531 199.022 60.5241Z" fill="white" stroke="#71A691" stroke-width="3"/>
<path d="M208.743 102.225L208.743 99.8859C208.743 88.0669 199.438 78.5993 187.823 78.5993V78.5993C175.902 78.5993 166.12 88.5525 166.12 100.683L166.12 102.225" stroke="#71A691" stroke-width="3" stroke-linecap="round"/>
<path d="M150.308 129.555C150.894 128.969 150.894 128.019 150.308 127.433L140.762 117.888C140.176 117.302 139.227 117.302 138.641 117.888C138.055 118.473 138.055 119.423 138.641 120.009L147.126 128.494L138.641 136.979C138.055 137.565 138.055 138.515 138.641 139.101C139.227 139.687 140.176 139.687 140.762 139.101L150.308 129.555ZM79.6277 129.994H149.247V126.994H79.6277V129.994Z" fill="#71A691"/>
<path d="M122.007 148.103C121.416 148.682 121.406 149.632 121.986 150.224L131.435 159.866C132.015 160.457 132.965 160.467 133.556 159.887C134.148 159.307 134.158 158.358 133.578 157.766L125.179 149.195L133.749 140.796C134.341 140.216 134.35 139.267 133.771 138.675C133.191 138.083 132.241 138.074 131.649 138.654L122.007 148.103ZM191.314 148.363L123.072 147.674L123.042 150.674L191.283 151.363L191.314 148.363Z" fill="#71A691"/>
</svg>
