<svg width="1920" height="839" viewBox="0 0 1920 839" fill="none" xmlns="http://www.w3.org/2000/svg">
<mask id="mask0_830_1582" style="mask-type:alpha" maskUnits="userSpaceOnUse" x="0" y="0" width="1920" height="839">
<rect width="1920" height="839" fill="#D9D9D9"/>
</mask>
<g mask="url(#mask0_830_1582)">
<path d="M0.5 0.5L1919.5 0.5V690.5L0.5 690.5L0.5 0.5Z" fill="#F9F5EC" stroke="#F9F5EC"/>
<path d="M2900 701C2835.56 714.333 2771.11 714.333 2706.67 701C2642.22 687.667 2577.78 687.667 2513.33 701C2448.89 714.333 2384.44 714.333 2320 701C2255.56 687.667 2191.11 687.667 2126.67 701C2062.22 714.333 1997.78 714.333 1933.33 701C1868.89 687.667 1804.44 687.667 1740 701C1675.56 714.333 1611.11 714.333 1546.67 701C1482.22 687.667 1417.78 687.667 1353.33 701C1288.89 714.333 1224.44 714.333 1160 701C1095.56 687.667 1031.11 687.667 966.667 701C902.222 714.333 837.778 714.333 773.333 701C708.889 687.667 644.444 687.667 580 701C515.556 714.333 451.111 714.333 386.667 701C322.222 687.667 257.778 687.667 193.333 701C128.889 714.333 64.4444 714.333 0 701" stroke="#F9F5EC" stroke-width="143"/>
</g>
</svg>
