<svg width="16" height="16" viewBox="0 0 16 16" fill="none" xmlns="http://www.w3.org/2000/svg">
<path d="M10.7072 14.364C10.8947 14.1764 11 13.9221 11 13.657C11 13.3918 10.8947 13.1375 10.7072 12.95L5.75721 7.99995L10.7072 3.04995C10.8894 2.86135 10.9902 2.60875 10.9879 2.34655C10.9856 2.08435 10.8804 1.83354 10.695 1.64813C10.5096 1.46272 10.2588 1.35756 9.99662 1.35528C9.73442 1.353 9.48182 1.45379 9.29322 1.63595L3.63621 7.29295C3.44874 7.48048 3.34343 7.73479 3.34343 7.99995C3.34343 8.26512 3.44874 8.51942 3.63621 8.70695L9.29321 14.364C9.48074 14.5514 9.73505 14.6567 10.0002 14.6567C10.2654 14.6567 10.5197 14.5514 10.7072 14.364Z" fill="#71A691"/>
</svg>
