<svg width="13" height="13" viewBox="0 0 13 13" fill="none" xmlns="http://www.w3.org/2000/svg">
<path d="M4.96764 1.72704C4.82703 1.86768 4.74805 2.05841 4.74805 2.25729C4.74805 2.45616 4.82703 2.64689 4.96764 2.78754L8.68014 6.50004L4.96764 10.2125C4.83102 10.354 4.75542 10.5434 4.75713 10.7401C4.75884 10.9367 4.83772 11.1248 4.97677 11.2639C5.11583 11.403 5.30394 11.4818 5.50059 11.4835C5.69723 11.4853 5.88668 11.4097 6.02814 11.273L10.2709 7.03029C10.4115 6.88964 10.4905 6.69891 10.4905 6.50004C10.4905 6.30116 10.4115 6.11043 10.2709 5.96979L6.02814 1.72704C5.88749 1.58643 5.69676 1.50745 5.49789 1.50745C5.29901 1.50745 5.10828 1.58643 4.96764 1.72704Z" fill="black" fill-opacity="0.8"/>
</svg>
