<svg width="340" height="340" viewBox="0 0 340 340" fill="none" xmlns="http://www.w3.org/2000/svg">
<circle cx="170" cy="170" r="170" fill="white"/>
<mask id="path-2-inside-1_132_118" fill="white">
<path fill-rule="evenodd" clip-rule="evenodd" d="M240.994 91.283C240.037 91.283 239.261 92.0589 239.261 93.0159V103.685C239.261 104.166 238.871 104.555 238.391 104.555H227.623C226.666 104.555 225.89 105.331 225.89 106.288V115.075C225.89 116.032 226.666 116.808 227.623 116.808H238.391C238.871 116.808 239.261 117.197 239.261 117.678V128.349C239.261 129.306 240.037 130.082 240.994 130.082H248.992C249.949 130.082 250.725 129.306 250.725 128.349V117.678C250.725 117.197 251.114 116.808 251.595 116.808H261.414C262.371 116.808 263.147 116.032 263.147 115.075V106.288C263.147 105.331 262.371 104.555 261.414 104.555H251.595C251.114 104.555 250.725 104.166 250.725 103.685V93.0159C250.725 92.0589 249.949 91.283 248.992 91.283H240.994Z"/>
</mask>
<path d="M242.761 93.0161C242.761 93.9921 241.97 94.7832 240.994 94.7832V87.7832C238.104 87.7832 235.761 90.1261 235.761 93.0161H242.761ZM242.761 103.686V93.0161H235.761V103.686H242.761ZM238.391 101.056H227.623V108.056H238.391V101.056ZM227.623 101.056C224.733 101.056 222.39 103.398 222.39 106.289H229.39C229.39 107.264 228.598 108.056 227.623 108.056V101.056ZM222.39 106.289V115.075H229.39V106.289H222.39ZM222.39 115.075C222.39 117.965 224.733 120.308 227.623 120.308V113.308C228.599 113.308 229.39 114.099 229.39 115.075H222.39ZM227.623 120.308H238.391V113.308H227.623V120.308ZM242.761 128.35V117.678H235.761V128.35H242.761ZM240.994 126.583C241.97 126.583 242.761 127.374 242.761 128.35H235.761C235.761 131.24 238.104 133.583 240.994 133.583V126.583ZM248.992 126.583H240.994V133.583H248.992V126.583ZM247.224 128.35C247.224 127.374 248.016 126.583 248.992 126.583V133.583C251.882 133.583 254.224 131.24 254.224 128.35H247.224ZM247.224 117.678V128.35H254.224V117.678H247.224ZM251.594 120.308H261.414V113.308H251.594V120.308ZM261.414 120.308C264.304 120.308 266.647 117.965 266.647 115.075H259.647C259.647 114.099 260.438 113.308 261.414 113.308V120.308ZM266.647 115.075V106.289H259.647V115.075H266.647ZM266.647 106.289C266.647 103.399 264.304 101.056 261.414 101.056V108.056C260.438 108.056 259.647 107.264 259.647 106.289H266.647ZM261.414 101.056H251.594V108.056H261.414V101.056ZM247.224 93.0161V103.686H254.224V93.0161H247.224ZM248.992 94.7832C248.016 94.7832 247.224 93.9921 247.224 93.0161H254.224C254.224 90.1261 251.882 87.7832 248.992 87.7832V94.7832ZM240.994 94.7832H248.992V87.7832H240.994V94.7832ZM251.594 101.056C253.047 101.056 254.224 102.233 254.224 103.686H247.224C247.224 106.099 249.181 108.056 251.594 108.056V101.056ZM254.224 117.678C254.224 119.131 253.047 120.308 251.594 120.308V113.308C249.181 113.308 247.224 115.265 247.224 117.678H254.224ZM238.391 120.308C236.938 120.308 235.761 119.131 235.761 117.678H242.761C242.761 115.265 240.804 113.308 238.391 113.308V120.308ZM235.761 103.686C235.761 102.233 236.938 101.056 238.391 101.056V108.056C240.804 108.056 242.761 106.099 242.761 103.686H235.761Z" fill="#71A691" mask="url(#path-2-inside-1_132_118)"/>
<mask id="path-4-inside-2_132_118" fill="white">
<path fill-rule="evenodd" clip-rule="evenodd" d="M79.0577 116.107C77.6105 114.262 76.8545 111.732 76.8545 109.053C76.8545 103.756 81.2373 99.4629 86.6437 99.4629C90.1844 99.4629 93.2861 101.304 95.0052 104.063C96.7242 101.305 99.8259 99.4631 103.367 99.4631C108.773 99.4631 113.156 103.756 113.156 109.053C113.156 111.243 112.551 113.245 111.459 114.84C111.428 114.967 111.378 115.093 111.308 115.215L110.422 116.496L108.902 118.673L106.875 121.491L104.089 124.821L98.3694 130.936C97.0719 132.323 94.8997 132.407 93.4985 131.125L86.6098 124.821L83.0634 121.107L80.9102 118.673L79.5169 116.88L79.1696 116.318C79.1268 116.249 79.0896 116.179 79.0577 116.107Z"/>
</mask>
<path d="M79.0577 116.107L82.7093 114.475L82.5086 114.026L82.2053 113.639L79.0577 116.107ZM95.0052 104.063L91.6103 106.179L95.0051 111.626L98.4 106.179L95.0052 104.063ZM111.459 114.84L108.158 112.581L107.751 113.176L107.577 113.876L111.459 114.84ZM111.308 115.215L114.597 117.492L114.696 117.35L114.781 117.199L111.308 115.215ZM110.422 116.496L113.701 118.786L113.706 118.779L113.71 118.773L110.422 116.496ZM108.902 118.673L112.149 121.009L112.165 120.986L112.182 120.963L108.902 118.673ZM106.875 121.491L109.943 124.058L110.037 123.946L110.122 123.827L106.875 121.491ZM104.089 124.821L107.01 127.554L107.085 127.473L107.156 127.388L104.089 124.821ZM98.3694 130.936L95.4481 128.203L95.4481 128.203L98.3694 130.936ZM93.4985 131.125L96.1989 128.174L96.1989 128.174L93.4985 131.125ZM86.6098 124.821L83.7168 127.584L83.8099 127.681L83.9094 127.772L86.6098 124.821ZM83.0634 121.107L80.0677 123.758L80.1179 123.814L80.1703 123.869L83.0634 121.107ZM80.9102 118.673L77.7516 121.128L77.8299 121.228L77.9145 121.324L80.9102 118.673ZM79.5169 116.88L76.1144 118.983L76.227 119.166L76.3583 119.335L79.5169 116.88ZM79.1696 116.318L75.767 118.421L75.7671 118.421L79.1696 116.318ZM82.2053 113.639C81.4199 112.637 80.8545 111.033 80.8545 109.053H72.8545C72.8545 112.432 73.801 115.886 75.9101 118.576L82.2053 113.639ZM80.8545 109.053C80.8545 106.043 83.3683 103.463 86.6437 103.463V95.4629C79.1062 95.4629 72.8545 101.47 72.8545 109.053H80.8545ZM86.6437 103.463C88.7718 103.463 90.6048 104.565 91.6103 106.179L98.4 101.948C95.9674 98.0439 91.5971 95.4629 86.6437 95.4629V103.463ZM98.4 106.179C99.4055 104.565 101.238 103.463 103.367 103.463V95.4631C98.4132 95.4631 94.043 98.044 91.6104 101.948L98.4 106.179ZM103.367 103.463C106.642 103.463 109.156 106.043 109.156 109.053H117.156C117.156 101.47 110.904 95.4631 103.367 95.4631V103.463ZM109.156 109.053C109.156 110.509 108.755 111.709 108.158 112.581L114.76 117.099C116.347 114.781 117.156 111.976 117.156 109.053H109.156ZM107.577 113.876C107.635 113.645 107.723 113.428 107.835 113.231L114.781 117.199C115.033 116.759 115.221 116.289 115.341 115.804L107.577 113.876ZM108.019 112.939L107.133 114.219L113.71 118.773L114.597 117.492L108.019 112.939ZM107.142 114.207L105.622 116.384L112.182 120.963L113.701 118.786L107.142 114.207ZM105.654 116.338L103.628 119.156L110.122 123.827L112.149 121.009L105.654 116.338ZM103.807 118.924L101.021 122.254L107.156 127.388L109.943 124.058L103.807 118.924ZM101.167 122.089L95.4481 128.203L101.291 133.668L107.01 127.554L101.167 122.089ZM95.4481 128.203C95.6482 127.989 95.983 127.976 96.1989 128.174L90.7981 134.076C93.8165 136.838 98.4957 136.656 101.291 133.668L95.4481 128.203ZM96.1989 128.174L89.3102 121.87L83.9094 127.772L90.7981 134.076L96.1989 128.174ZM89.5028 122.059L85.9564 118.345L80.1703 123.869L83.7168 127.584L89.5028 122.059ZM86.0591 118.456L83.9059 116.023L77.9145 121.324L80.0677 123.758L86.0591 118.456ZM84.0688 116.219L82.6755 114.426L76.3583 119.335L77.7516 121.128L84.0688 116.219ZM82.9195 114.777L82.5722 114.215L75.7671 118.421L76.1144 118.983L82.9195 114.777ZM82.5722 114.215C82.6223 114.296 82.6683 114.383 82.7093 114.475L75.4061 117.74C75.5108 117.974 75.6314 118.202 75.767 118.421L82.5722 114.215Z" fill="#71A691" mask="url(#path-4-inside-2_132_118)"/>
<path d="M151.158 146.768C151.885 146.079 151.93 144.716 151.258 143.724C150.586 142.732 149.451 142.486 148.723 143.175L151.158 146.768ZM97.6803 144.971L97.0276 146.879L97.0674 146.904L97.1079 146.927L97.6803 144.971ZM92.402 141.588L91.7493 143.495L92.402 141.588ZM121.52 171.886L122.738 173.682L121.52 171.886ZM116.676 170.418L88.363 154.224L87.228 158.141L115.541 174.336L116.676 170.418ZM122.738 173.682L151.158 146.768L148.723 143.175L120.303 170.089L122.738 173.682ZM91.7493 143.495L97.0276 146.879L98.3329 143.064L93.0547 139.681L91.7493 143.495ZM97.1079 146.927L113.154 156.168L114.299 152.256L98.2527 143.016L97.1079 146.927ZM85.4017 145.547C86.4918 142.815 89.2819 141.913 91.7493 143.495L93.0547 139.681C88.8091 136.959 84.0082 138.511 82.1326 143.212L85.4017 145.547ZM88.363 154.224C85.5652 152.623 84.1881 148.588 85.4017 145.547L82.1326 143.212C80.0443 148.445 82.4138 155.387 87.228 158.141L88.363 154.224ZM115.541 174.336C118.043 175.767 120.801 175.517 122.738 173.682L120.303 170.089C119.327 171.014 117.937 171.14 116.676 170.418L115.541 174.336Z" fill="#71A691"/>
<path d="M113.121 153.892V153.892C114.471 154.879 116.07 154.813 117.137 153.728L146.77 123.583L148.983 121.925" stroke="#71A691" stroke-width="4"/>
<path d="M223.888 153.876L239.934 144.636L245.213 141.252C248.569 139.101 252.365 140.327 253.848 144.043V144.043C255.499 148.181 253.625 153.669 249.819 155.846L221.507 172.041C219.625 173.118 217.551 172.929 216.094 171.55L187.674 144.636" stroke="#71A691" stroke-width="4" stroke-linecap="round"/>
<path d="M224.494 153.556V153.556C223.143 154.543 221.545 154.477 220.478 153.392L190.845 123.247L188.632 121.589" stroke="#71A691" stroke-width="4"/>
<path d="M149.942 144.86L141.822 183.648" stroke="#71A691" stroke-width="4" stroke-linecap="round"/>
<path d="M187.672 144.386L195.792 184.594" stroke="#71A691" stroke-width="4" stroke-linecap="round"/>
<path d="M192.362 105.078C192.362 119.609 181.373 131.157 168.091 131.157C154.81 131.157 143.821 119.609 143.821 105.078C143.821 90.5483 154.81 79 168.091 79C181.373 79 192.362 90.5483 192.362 105.078Z" stroke="#71A691" stroke-width="4"/>
<path d="M124.775 186.76L176.26 202.435C180.115 203.608 182.549 207.507 181.91 211.482C181.198 215.901 176.983 218.746 172.624 217.749L120.262 205.773C114.994 204.568 111.583 199.295 112.644 193.995C113.759 188.428 119.334 185.103 124.775 186.76Z" stroke="#71A691" stroke-width="4"/>
<path d="M186.122 199.296L209.857 189.755C215.665 187.42 222.213 190.511 224.081 196.471V196.471C225.911 202.304 222.501 208.504 216.587 210.099L190.917 217.019" stroke="#71A691" stroke-width="4" stroke-linecap="round"/>
</svg>
