<svg width="340" height="340" viewBox="0 0 340 340" fill="none" xmlns="http://www.w3.org/2000/svg">
<circle cx="170" cy="170" r="170" fill="white"/>
<path d="M143.037 169.681V169.681C134.673 162.597 129.292 152.617 127.969 141.737L127.347 136.621C127.347 111.659 145.701 94.2414 168.949 94.3966C192.196 94.5519 210.922 112.712 210.771 136.621C210.684 150.396 206.179 159.055 195.081 169.681" stroke="#71A691" stroke-width="4"/>
<path d="M195.328 169.422C185.06 180.644 183.399 191.866 183.13 195.203C183.086 195.753 182.631 196.196 182.079 196.196H158.414C157.862 196.196 157.405 195.751 157.354 195.201C157.037 191.812 155.053 180.322 142.617 169.422" stroke="#71A691" stroke-width="4"/>
<mask id="path-4-inside-1_132_120" fill="white">
<path fill-rule="evenodd" clip-rule="evenodd" d="M147.742 138.44C145.908 136.142 144.95 133.024 144.95 129.724C144.95 123.099 150.679 117.729 157.746 117.729C162.374 117.729 166.429 120.033 168.676 123.483C170.923 120.033 174.977 117.729 179.606 117.729C186.673 117.729 192.402 123.099 192.402 129.724C192.402 132.465 191.61 134.971 190.181 136.968C190.139 137.126 190.074 137.283 189.983 137.435L188.825 139.037L186.838 141.76L184.189 145.285L180.546 149.45L172.656 157.522C171.172 159.041 168.759 159.135 167.161 157.735L157.699 149.45L153.063 144.804L150.249 141.76L148.427 139.518L147.84 138.608C147.804 138.553 147.772 138.497 147.742 138.44Z"/>
</mask>
<path fill-rule="evenodd" clip-rule="evenodd" d="M147.742 138.44C145.908 136.142 144.95 133.024 144.95 129.724C144.95 123.099 150.679 117.729 157.746 117.729C162.374 117.729 166.429 120.033 168.676 123.483C170.923 120.033 174.977 117.729 179.606 117.729C186.673 117.729 192.402 123.099 192.402 129.724C192.402 132.465 191.61 134.971 190.181 136.968C190.139 137.126 190.074 137.283 189.983 137.435L188.825 139.037L186.838 141.76L184.189 145.285L180.546 149.45L172.656 157.522C171.172 159.041 168.759 159.135 167.161 157.735L157.699 149.45L153.063 144.804L150.249 141.76L148.427 139.518L147.84 138.608C147.804 138.553 147.772 138.497 147.742 138.44Z" fill="white"/>
<path d="M147.742 138.44L151.289 136.591L151.11 136.248L150.869 135.945L147.742 138.44ZM168.676 123.483L165.324 125.666L168.676 130.814L172.028 125.666L168.676 123.483ZM190.181 136.968L186.929 134.639L186.502 135.235L186.315 135.944L190.181 136.968ZM189.983 137.435L193.224 139.779L193.328 139.637L193.418 139.485L189.983 137.435ZM188.825 139.037L192.056 141.394L192.061 141.388L192.065 141.381L188.825 139.037ZM186.838 141.76L190.035 144.164L190.053 144.141L190.069 144.118L186.838 141.76ZM184.189 145.285L187.2 147.918L187.297 147.807L187.386 147.688L184.189 145.285ZM180.546 149.45L183.407 152.246L183.485 152.167L183.558 152.083L180.546 149.45ZM172.656 157.522L175.517 160.318L175.517 160.318L172.656 157.522ZM167.161 157.735L164.525 160.745L164.525 160.745L167.161 157.735ZM157.699 149.45L154.867 152.276L154.962 152.371L155.064 152.46L157.699 149.45ZM153.063 144.804L150.126 147.52L150.178 147.576L150.232 147.63L153.063 144.804ZM150.249 141.76L147.143 144.282L147.224 144.382L147.312 144.476L150.249 141.76ZM148.427 139.518L145.067 141.688L145.185 141.87L145.322 142.039L148.427 139.518ZM147.84 138.608L144.48 140.778L144.48 140.778L147.84 138.608ZM150.869 135.945C149.701 134.482 148.95 132.293 148.95 129.724H140.95C140.95 133.754 142.115 137.802 144.616 140.936L150.869 135.945ZM148.95 129.724C148.95 125.548 152.641 121.729 157.746 121.729V113.729C148.717 113.729 140.95 120.651 140.95 129.724H148.95ZM157.746 121.729C161.042 121.729 163.826 123.366 165.324 125.666L172.028 121.301C169.032 116.699 163.706 113.729 157.746 113.729V121.729ZM172.028 125.666C173.526 123.366 176.309 121.729 179.606 121.729V113.729C173.645 113.729 168.32 116.699 165.324 121.301L172.028 125.666ZM179.606 121.729C184.711 121.729 188.402 125.548 188.402 129.724H196.402C196.402 120.651 188.635 113.729 179.606 113.729V121.729ZM188.402 129.724C188.402 131.693 187.836 133.371 186.929 134.639L193.434 139.296C195.384 136.572 196.402 133.238 196.402 129.724H188.402ZM186.315 135.944C186.368 135.74 186.449 135.552 186.549 135.385L193.418 139.485C193.699 139.014 193.91 138.512 194.048 137.992L186.315 135.944ZM186.743 135.09L185.584 136.692L192.065 141.381L193.224 139.779L186.743 135.09ZM185.593 136.68L183.606 139.403L190.069 144.118L192.056 141.394L185.593 136.68ZM183.64 139.357L180.991 142.882L187.386 147.688L190.035 144.164L183.64 139.357ZM181.178 142.652L177.535 146.817L183.558 152.083L187.2 147.918L181.178 142.652ZM177.686 146.654L169.796 154.726L175.517 160.318L183.407 152.246L177.686 146.654ZM169.796 154.726L169.796 154.726L164.525 160.745C167.721 163.543 172.547 163.356 175.517 160.318L169.796 154.726ZM169.796 154.726L160.334 146.441L155.064 152.46L164.525 160.745L169.796 154.726ZM160.53 146.625L155.895 141.979L150.232 147.63L154.867 152.276L160.53 146.625ZM156 142.089L153.186 139.045L147.312 144.476L150.126 147.52L156 142.089ZM153.354 139.239L151.533 136.996L145.322 142.039L147.143 144.282L153.354 139.239ZM151.788 137.347L151.2 136.438L144.48 140.778L145.067 141.688L151.788 137.347ZM151.2 136.438C151.231 136.486 151.261 136.537 151.289 136.591L144.195 140.289C144.282 140.456 144.377 140.62 144.48 140.778L151.2 136.438Z" fill="#71A691" mask="url(#path-4-inside-1_132_120)"/>
<mask id="path-6-inside-2_132_120" fill="white">
<path fill-rule="evenodd" clip-rule="evenodd" d="M157.678 200.471C158.782 200.471 159.678 201.367 159.678 202.471V212.247L170.228 218.929L180.778 212.247V204.471H165.892C164.788 204.471 163.892 203.576 163.892 202.471C163.892 201.367 164.788 200.471 165.892 200.471H181.778C183.435 200.471 184.778 201.814 184.778 203.471V212.798C184.778 213.826 184.252 214.782 183.383 215.332L171.833 222.647C170.853 223.268 169.603 223.268 168.623 222.647L157.073 215.332C156.204 214.782 155.678 213.826 155.678 212.798V202.471C155.678 201.367 156.573 200.471 157.678 200.471Z"/>
</mask>
<path fill-rule="evenodd" clip-rule="evenodd" d="M157.678 200.471C158.782 200.471 159.678 201.367 159.678 202.471V212.247L170.228 218.929L180.778 212.247V204.471H165.892C164.788 204.471 163.892 203.576 163.892 202.471C163.892 201.367 164.788 200.471 165.892 200.471H181.778C183.435 200.471 184.778 201.814 184.778 203.471V212.798C184.778 213.826 184.252 214.782 183.383 215.332L171.833 222.647C170.853 223.268 169.603 223.268 168.623 222.647L157.073 215.332C156.204 214.782 155.678 213.826 155.678 212.798V202.471C155.678 201.367 156.573 200.471 157.678 200.471Z" fill="white"/>
<path d="M159.678 212.247H155.678V214.449L157.538 215.627L159.678 212.247ZM170.228 218.929L168.088 222.308L170.228 223.664L172.368 222.308L170.228 218.929ZM180.778 212.247L182.918 215.627L184.778 214.449V212.247H180.778ZM180.778 204.471H184.778V200.471H180.778V204.471ZM183.383 215.332L185.524 218.711L185.524 218.711L183.383 215.332ZM171.833 222.647L173.973 226.027L171.833 222.647ZM168.623 222.647L166.483 226.027L166.483 226.027L168.623 222.647ZM157.073 215.332L154.932 218.711L154.932 218.711L157.073 215.332ZM163.678 202.471C163.678 199.157 160.991 196.471 157.678 196.471V204.471C156.573 204.471 155.678 203.576 155.678 202.471H163.678ZM163.678 212.247V202.471H155.678V212.247H163.678ZM172.368 215.55L161.818 208.868L157.538 215.627L168.088 222.308L172.368 215.55ZM178.638 208.868L168.088 215.55L172.368 222.308L182.918 215.627L178.638 208.868ZM176.778 204.471V212.247H184.778V204.471H176.778ZM165.892 208.471H180.778V200.471H165.892V208.471ZM159.892 202.471C159.892 205.785 162.579 208.471 165.892 208.471V200.471C166.997 200.471 167.892 201.367 167.892 202.471H159.892ZM165.892 196.471C162.579 196.471 159.892 199.157 159.892 202.471H167.892C167.892 203.576 166.997 204.471 165.892 204.471V196.471ZM181.778 196.471H165.892V204.471H181.778V196.471ZM188.778 203.471C188.778 199.605 185.644 196.471 181.778 196.471V204.471C181.226 204.471 180.778 204.023 180.778 203.471H188.778ZM188.778 212.798V203.471H180.778V212.798H188.778ZM185.524 218.711C187.55 217.428 188.778 215.196 188.778 212.798H180.778C180.778 212.455 180.954 212.136 181.243 211.953L185.524 218.711ZM173.973 226.027L185.524 218.711L181.243 211.953L169.693 219.268L173.973 226.027ZM166.483 226.027C168.77 227.475 171.686 227.475 173.973 226.027L169.693 219.268C170.02 219.061 170.436 219.061 170.763 219.268L166.483 226.027ZM154.932 218.711L166.483 226.027L170.763 219.268L159.213 211.953L154.932 218.711ZM151.678 212.798C151.678 215.196 152.906 217.428 154.932 218.711L159.213 211.953C159.502 212.136 159.678 212.455 159.678 212.798H151.678ZM151.678 202.471V212.798H159.678V202.471H151.678ZM157.678 196.471C154.364 196.471 151.678 199.157 151.678 202.471H159.678C159.678 203.576 158.782 204.471 157.678 204.471V196.471Z" fill="#71A691" mask="url(#path-6-inside-2_132_120)"/>
<line x1="101.103" y1="148.702" x2="117.701" y2="145.431" stroke="#71A691" stroke-width="4" stroke-linecap="round"/>
<line x1="100.327" y1="117.326" x2="116.968" y2="120.366" stroke="#71A691" stroke-width="4" stroke-linecap="round"/>
<line x1="113.214" y1="87.0951" x2="126.498" y2="97.5697" stroke="#71A691" stroke-width="4" stroke-linecap="round"/>
<line x1="138.27" y1="72.1257" x2="147.446" y2="86.3383" stroke="#71A691" stroke-width="4" stroke-linecap="round"/>
<line x1="170.152" y1="65.9837" x2="170.289" y2="82.9003" stroke="#71A691" stroke-width="4" stroke-linecap="round"/>
<line x1="200.277" y1="72.4241" x2="194.441" y2="88.3028" stroke="#71A691" stroke-width="4" stroke-linecap="round"/>
<line x1="220.422" y1="88.5823" x2="208.418" y2="100.502" stroke="#71A691" stroke-width="4" stroke-linecap="round"/>
<line x1="235.118" y1="113.557" x2="220.163" y2="121.466" stroke="#71A691" stroke-width="4" stroke-linecap="round"/>
<line x1="239.44" y1="151.216" x2="222.648" y2="149.169" stroke="#71A691" stroke-width="4" stroke-linecap="round"/>
</svg>
