<svg width="340" height="340" viewBox="0 0 340 340" fill="none" xmlns="http://www.w3.org/2000/svg">
<circle cx="170" cy="170" r="170" fill="white"/>
<mask id="path-2-inside-1_132_119" fill="white">
<path fill-rule="evenodd" clip-rule="evenodd" d="M199.239 147.649C201.173 144.924 202.241 141.538 202.241 137.842C202.241 128.688 194.121 121.268 184.104 121.268C177.544 121.268 171.796 124.451 168.612 129.219C165.427 124.451 159.68 121.268 153.119 121.268C143.102 121.268 134.982 128.688 134.982 137.842C134.982 142.351 136.31 146.614 138.855 149.78L139.91 151.372L142.491 154.471L146.48 158.677L153.051 165.096L165.727 175.916C168.423 178.217 172.434 178.062 174.944 175.559L185.435 165.096L190.598 159.341L194.353 154.471L197.169 150.708L198.812 148.494L198.994 148.197C199.103 148.019 199.184 147.835 199.239 147.649Z"/>
</mask>
<path fill-rule="evenodd" clip-rule="evenodd" d="M199.239 147.649C201.173 144.924 202.241 141.538 202.241 137.842C202.241 128.688 194.121 121.268 184.104 121.268C177.544 121.268 171.796 124.451 168.612 129.219C165.427 124.451 159.68 121.268 153.119 121.268C143.102 121.268 134.982 128.688 134.982 137.842C134.982 142.351 136.31 146.614 138.855 149.78L139.91 151.372L142.491 154.471L146.48 158.677L153.051 165.096L165.727 175.916C168.423 178.217 172.434 178.062 174.944 175.559L185.435 165.096L190.598 159.341L194.353 154.471L197.169 150.708L198.812 148.494L198.994 148.197C199.103 148.019 199.184 147.835 199.239 147.649Z" fill="white"/>
<path d="M199.239 147.649L195.977 145.334L195.593 145.874L195.405 146.51L199.239 147.649ZM168.612 129.219L165.285 131.441L168.612 136.421L171.938 131.441L168.612 129.219ZM138.855 149.78L142.189 147.57L142.087 147.417L141.972 147.274L138.855 149.78ZM139.91 151.372L136.575 153.581L136.696 153.764L136.836 153.932L139.91 151.372ZM142.491 154.471L139.418 157.031L139.5 157.13L139.589 157.224L142.491 154.471ZM146.48 158.677L143.578 161.429L143.631 161.485L143.685 161.538L146.48 158.677ZM153.051 165.096L150.256 167.957L150.352 168.051L150.454 168.138L153.051 165.096ZM165.727 175.916L163.13 178.958L165.727 175.916ZM174.944 175.559L177.768 178.392L177.768 178.392L174.944 175.559ZM185.435 165.096L188.26 167.928L188.339 167.85L188.413 167.767L185.435 165.096ZM190.598 159.341L193.576 162.012L193.675 161.901L193.766 161.783L190.598 159.341ZM194.353 154.471L197.521 156.913L197.538 156.891L197.555 156.868L194.353 154.471ZM197.169 150.708L200.371 153.105L200.376 153.098L200.381 153.092L197.169 150.708ZM198.812 148.494L202.024 150.878L202.13 150.735L202.223 150.583L198.812 148.494ZM198.994 148.197L202.405 150.286L202.405 150.286L198.994 148.197ZM202.501 149.964C204.945 146.521 206.241 142.314 206.241 137.842H198.241C198.241 140.761 197.401 143.328 195.977 145.334L202.501 149.964ZM206.241 137.842C206.241 126.147 195.983 117.268 184.104 117.268V125.268C192.259 125.268 198.241 131.229 198.241 137.842H206.241ZM184.104 117.268C176.257 117.268 169.239 121.078 165.285 126.998L171.938 131.441C174.354 127.824 178.83 125.268 184.104 125.268V117.268ZM171.938 126.998C167.984 121.078 160.966 117.268 153.119 117.268V125.268C158.393 125.268 162.87 127.825 165.285 131.441L171.938 126.998ZM153.119 117.268C141.24 117.268 130.982 126.147 130.982 137.842H138.982C138.982 131.229 144.964 125.268 153.119 125.268V117.268ZM130.982 137.842C130.982 143.098 132.526 148.292 135.737 152.286L141.972 147.274C140.094 144.937 138.982 141.604 138.982 137.842H130.982ZM143.244 149.163L142.189 147.57L135.52 151.989L136.575 153.581L143.244 149.163ZM145.564 151.911L142.983 148.812L136.836 153.932L139.418 157.031L145.564 151.911ZM149.382 155.924L145.393 151.718L139.589 157.224L143.578 161.429L149.382 155.924ZM155.846 162.235L149.276 155.815L143.685 161.538L150.256 167.957L155.846 162.235ZM168.324 172.874L155.648 162.054L150.454 168.138L163.13 178.958L168.324 172.874ZM172.119 172.727C171.086 173.757 169.434 173.821 168.324 172.874L163.13 178.958C167.411 182.613 173.782 182.367 177.768 178.392L172.119 172.727ZM182.611 162.264L172.119 172.727L177.768 178.392L188.26 167.928L182.611 162.264ZM187.621 156.67L182.458 162.425L188.413 167.767L193.576 162.012L187.621 156.67ZM191.185 152.029L187.43 156.898L193.766 161.783L197.521 156.913L191.185 152.029ZM193.966 148.311L191.15 152.074L197.555 156.868L200.371 153.105L193.966 148.311ZM195.599 146.111L193.957 148.324L200.381 153.092L202.024 150.878L195.599 146.111ZM195.582 146.108L195.4 146.405L202.223 150.583L202.405 150.286L195.582 146.108ZM195.405 146.51C195.449 146.361 195.51 146.226 195.582 146.108L202.405 150.286C202.695 149.812 202.919 149.309 203.074 148.787L195.405 146.51Z" fill="#71A691" mask="url(#path-2-inside-1_132_119)"/>
<path d="M183.675 94.4852L172.622 99.7073L168 101.891C165.143 103.241 161.787 102.324 160.034 99.7139V99.7139C159.31 98.6369 158.923 97.3571 158.922 96.0393L158.922 95.9489C158.919 93.2199 160.493 90.7157 162.934 89.5621L177.74 82.5669C183.24 79.9682 189.399 79.3125 195.233 80.7046L219.186 86.4206" stroke="#71A691" stroke-width="4"/>
<path d="M225.207 108.235C226.21 107.777 227.366 108.234 227.788 109.256C228.21 110.279 227.739 111.479 226.736 111.938L225.207 108.235ZM197.099 106.425L198.469 104.933L197.099 106.425ZM190.015 91.4554L190.509 89.4797L190.015 91.4554ZM212.391 98.9704L189.521 93.4311L190.509 89.4797L213.379 95.019L212.391 98.9704ZM187.441 101.463L196.541 103.845L195.486 107.78L186.386 105.397L187.441 101.463ZM198.469 104.933L205.078 111.344L202.339 114.328L195.73 107.917L198.469 104.933ZM216.108 112.394L225.207 108.235L226.736 111.938L217.637 116.097L216.108 112.394ZM205.078 111.344C206.571 112.792 208.552 113.596 210.627 113.596L210.535 117.654C207.47 117.654 204.544 116.467 202.339 114.328L205.078 111.344ZM196.541 103.845C197.266 104.035 197.928 104.409 198.469 104.933L195.73 107.917C195.662 107.851 195.578 107.804 195.486 107.78L196.541 103.845ZM184.513 97.2295C184.363 99.2039 185.59 100.978 187.441 101.463L186.386 105.397C182.718 104.437 180.286 100.92 180.583 97.0074L184.513 97.2295ZM210.627 113.596C212.507 113.596 214.375 113.187 216.108 112.394L217.637 116.097C215.391 117.124 212.97 117.654 210.535 117.654L210.627 113.596ZM189.521 93.4311C187.104 92.8455 184.708 94.6626 184.513 97.2295L180.583 97.0074C180.969 91.9204 185.718 88.3192 190.509 89.4797L189.521 93.4311Z" fill="#71A691"/>
<rect x="2.34904" y="1.53613" width="8.62261" height="45.27" rx="4.31131" transform="matrix(0.97721 -0.212276 0.197311 0.980341 215.544 76.0328)" fill="white" stroke="#71A691" stroke-width="4"/>
<path d="M174.964 202.757L185.428 196.358L189.807 193.68C192.51 192.026 195.938 192.573 197.945 194.977V194.977C198.774 195.969 199.289 197.2 199.423 198.511L199.432 198.602C199.711 201.315 198.401 203.975 196.091 205.388L182.066 213.965C176.862 217.148 170.808 218.471 164.868 217.723L140.465 214.652" stroke="#71A691" stroke-width="4"/>
<path d="M132.271 193.616C131.32 194.181 130.125 193.852 129.601 192.881C129.078 191.91 129.424 190.665 130.376 190.1L132.271 193.616ZM161.547 192.839L161.872 190.825L161.547 192.839ZM160.406 192.348L159.195 193.981L160.406 192.348ZM170.836 194.215L170.511 196.229L170.836 194.215ZM145.951 201.43L169.258 204.444L168.678 208.482L145.371 205.468L145.951 201.43ZM170.511 196.229L161.222 194.853L161.872 190.825L171.16 192.201L170.511 196.229ZM159.195 193.981L151.977 188.329L154.397 185.062L161.616 190.715L159.195 193.981ZM140.901 188.486L132.271 193.616L130.376 190.1L139.005 184.97L140.901 188.486ZM151.977 188.329C150.344 187.05 148.292 186.467 146.228 186.693L145.907 182.647C148.956 182.313 151.987 183.175 154.397 185.062L151.977 188.329ZM161.222 194.853C160.483 194.744 159.786 194.444 159.195 193.981L161.616 190.715C161.69 190.773 161.778 190.811 161.872 190.825L161.222 194.853ZM173.853 200.122C173.802 198.141 172.401 196.509 170.511 196.229L171.16 192.201C174.906 192.756 177.683 195.99 177.783 199.916L173.853 200.122ZM146.228 186.693C144.359 186.898 142.543 187.509 140.901 188.486L139.005 184.97C141.134 183.704 143.486 182.913 145.907 182.647L146.228 186.693ZM169.258 204.444C171.721 204.762 173.918 202.695 173.853 200.122L177.783 199.916C177.913 205.016 173.558 209.113 168.678 208.482L169.258 204.444Z" fill="#71A691"/>
<rect x="-2.49081" y="-1.27228" width="8.62766" height="45.2517" rx="4.31383" transform="matrix(-0.949964 0.317605 -0.295441 -0.953744 139.71 223.443)" fill="white" stroke="#71A691" stroke-width="4"/>
</svg>
