<svg width="271" height="197" viewBox="0 0 271 197" fill="none" xmlns="http://www.w3.org/2000/svg">
<rect width="271" height="197" rx="22" fill="#E6F0EC"/>
<path d="M103.224 40H156.219L177.623 61.2135V148.67C177.623 153.823 173.446 158 168.293 158H103.232C98.0792 158 93.9022 153.823 93.9022 148.67V49.3296C93.9022 44.177 98.0711 40 103.224 40Z" fill="white"/>
<path d="M156.219 40L157.274 38.9346C156.994 38.6562 156.614 38.5 156.219 38.5V40ZM177.623 61.2135H179.123C179.123 60.8133 178.963 60.4298 178.679 60.1481L177.623 61.2135ZM156.219 38.5H103.224V41.5H156.219V38.5ZM92.4022 49.3296V148.67H95.4022V49.3296H92.4022ZM103.232 159.5H168.293V156.5H103.232V159.5ZM179.123 148.67V61.2135H176.123V148.67H179.123ZM178.679 60.1481L157.274 38.9346L155.163 41.0654L176.567 62.2789L178.679 60.1481ZM157.719 57.4816V40H154.719V57.4816H157.719ZM177.623 59.7135H159.95V62.7135H177.623V59.7135ZM154.719 57.4816C154.719 60.3711 157.061 62.7135 159.95 62.7135V59.7135C158.718 59.7135 157.719 58.7143 157.719 57.4816H154.719ZM168.293 159.5C174.274 159.5 179.123 154.651 179.123 148.67H176.123C176.123 152.995 172.617 156.5 168.293 156.5V159.5ZM92.4022 148.67C92.4022 154.651 97.2508 159.5 103.232 159.5V156.5C98.9077 156.5 95.4022 152.995 95.4022 148.67H92.4022ZM103.224 38.5C97.241 38.5 92.4022 43.3503 92.4022 49.3296H95.4022C95.4022 45.0037 98.9012 41.5 103.224 41.5V38.5Z" fill="#71A691"/>
<circle cx="112.155" cy="72.4428" r="5.7514" fill="white" stroke="#71A691" stroke-width="3"/>
<circle cx="112.155" cy="94.8569" r="5.7514" fill="white" stroke="#71A691" stroke-width="3"/>
<circle cx="112.155" cy="117.27" r="5.7514" fill="white" stroke="#71A691" stroke-width="3"/>
<circle cx="112.155" cy="139.683" r="5.7514" fill="white" stroke="#71A691" stroke-width="3"/>
<path d="M125.535 72.4824H158.826" stroke="#71A691" stroke-width="3" stroke-linecap="round"/>
<path d="M125.535 94.8965H158.826" stroke="#71A691" stroke-width="3" stroke-linecap="round"/>
<path d="M125.535 117.31H158.826" stroke="#71A691" stroke-width="3" stroke-linecap="round"/>
<path d="M125.535 139.724H158.826" stroke="#71A691" stroke-width="3" stroke-linecap="round"/>
</svg>
