<svg width="271" height="197" viewBox="0 0 271 197" fill="none" xmlns="http://www.w3.org/2000/svg">
<rect width="271" height="197" rx="22" fill="#E6F0EC"/>
<rect x="101.241" y="38.5" width="65.3173" height="120" rx="14.4927" fill="white" stroke="#71A691" stroke-width="3"/>
<path d="M108.849 38.3008L113.849 46.9176C115.196 49.2378 117.676 50.6659 120.359 50.6659H145.731C148.323 50.6659 150.732 49.3326 152.108 47.1368L157.647 38.3008" stroke="#71A691" stroke-width="3"/>
<path d="M99.7405 140.477C101.597 140.477 145.191 140.477 166.757 140.477" stroke="#71A691" stroke-width="3"/>
<path d="M195.761 98.915C195.761 112.796 184.511 124.049 170.634 124.049C156.757 124.049 145.506 112.796 145.506 98.915C145.506 85.0337 156.757 73.7812 170.634 73.7812C184.511 73.7812 195.761 85.0337 195.761 98.915Z" fill="white" stroke="#71A691" stroke-width="3"/>
<path d="M154.379 99.24L165.695 109.638L186.193 88.1924" stroke="#71A691" stroke-width="3" stroke-linecap="round"/>
</svg>
