<svg width="271" height="197" viewBox="0 0 271 197" fill="none" xmlns="http://www.w3.org/2000/svg">
<rect width="271" height="197" rx="22" fill="#E6F0EC"/>
<mask id="path-2-inside-1_133_316" fill="white">
<path fill-rule="evenodd" clip-rule="evenodd" d="M110.769 154.316C128.867 154.316 143.539 139.751 143.539 121.783C143.539 103.816 128.867 89.25 110.769 89.25C92.6713 89.25 78 103.816 78 121.783C78 128.529 80.0681 134.795 83.6091 139.991C84.0031 140.57 84.0959 141.306 83.8276 141.952L80.2244 150.629C79.5797 152.182 81.0216 153.789 82.6345 153.316L93.4508 150.142C93.9766 149.988 94.5411 150.059 95.0222 150.321C99.6953 152.868 105.062 154.316 110.769 154.316Z"/>
</mask>
<path fill-rule="evenodd" clip-rule="evenodd" d="M110.769 154.316C128.867 154.316 143.539 139.751 143.539 121.783C143.539 103.816 128.867 89.25 110.769 89.25C92.6713 89.25 78 103.816 78 121.783C78 128.529 80.0681 134.795 83.6091 139.991C84.0031 140.57 84.0959 141.306 83.8276 141.952L80.2244 150.629C79.5797 152.182 81.0216 153.789 82.6345 153.316L93.4508 150.142C93.9766 149.988 94.5411 150.059 95.0222 150.321C99.6953 152.868 105.062 154.316 110.769 154.316Z" fill="white"/>
<path d="M93.4508 150.142L94.2955 153.021L93.4508 150.142ZM95.0222 150.321L96.4579 147.687L95.0222 150.321ZM82.6345 153.316L83.4792 156.194L82.6345 153.316ZM83.6091 139.991L81.1301 141.681L83.6091 139.991ZM83.8276 141.952L86.5982 143.103L83.8276 141.952ZM140.539 121.783C140.539 138.073 127.231 151.316 110.769 151.316V157.316C130.504 157.316 146.539 141.428 146.539 121.783H140.539ZM110.769 92.25C127.231 92.25 140.539 105.493 140.539 121.783H146.539C146.539 102.138 130.504 86.25 110.769 86.25V92.25ZM81 121.783C81 105.493 94.3077 92.25 110.769 92.25V86.25C91.035 86.25 75 102.138 75 121.783H81ZM86.0882 138.302C82.875 133.587 81 127.906 81 121.783H75C75 129.152 77.2612 136.004 81.1301 141.681L86.0882 138.302ZM82.995 151.78L86.5982 143.103L81.057 140.802L77.4538 149.479L82.995 151.78ZM92.6062 147.263L81.7899 150.437L83.4792 156.194L94.2955 153.021L92.6062 147.263ZM110.769 151.316C105.575 151.316 100.701 149.999 96.4579 147.687L93.5865 152.955C98.6897 155.736 104.549 157.316 110.769 157.316V151.316ZM94.2955 153.021C94.0193 153.102 93.7662 153.053 93.5865 152.955L96.4579 147.687C95.316 147.064 93.9338 146.874 92.6062 147.263L94.2955 153.021ZM77.4538 149.479C75.8421 153.36 79.4467 157.377 83.4792 156.194L81.7899 150.437C82.5964 150.2 83.3173 151.004 82.995 151.78L77.4538 149.479ZM81.1301 141.681C80.9863 141.47 80.9153 141.143 81.057 140.802L86.5982 143.103C87.2765 141.47 87.02 139.669 86.0882 138.302L81.1301 141.681Z" fill="#71A691" mask="url(#path-2-inside-1_133_316)"/>
<circle r="1.5" transform="matrix(0.999749 -0.0224235 0.0226271 0.999744 110.256 141.361)" fill="#71A691" stroke="#71A691" stroke-width="1.27598"/>
<path d="M99.6604 113.521L99.7059 112.275C99.9034 106.867 104.448 102.642 109.856 102.84C110.347 102.858 110.837 102.876 111.332 102.894C115.925 103.061 119.513 106.921 119.345 111.514V111.514C119.257 113.922 118.13 116.174 116.254 117.687L114.639 118.99C111.41 121.595 109.635 125.597 109.87 129.74L110.023 132.441" stroke="#71A691" stroke-width="3" stroke-linecap="round"/>
<mask id="path-6-inside-2_133_316" fill="white">
<path fill-rule="evenodd" clip-rule="evenodd" d="M186.962 60.2606C184.206 42.525 167.68 30.1957 150.05 32.7224C132.419 35.249 120.361 51.6748 123.117 69.4103C125.873 87.1459 142.399 99.4752 160.03 96.9486C166.458 96.0274 172.145 93.2586 176.644 89.2523C177.154 88.7974 177.858 88.6109 178.527 88.7815L188.945 91.438C190.581 91.8551 191.951 90.2026 191.235 88.6757L185.78 77.0424C185.554 76.5607 185.531 76.0124 185.698 75.5119C187.284 70.7715 187.788 65.5748 186.962 60.2606Z"/>
</mask>
<path fill-rule="evenodd" clip-rule="evenodd" d="M186.962 60.2606C184.206 42.525 167.68 30.1957 150.05 32.7224C132.419 35.249 120.361 51.6748 123.117 69.4103C125.873 87.1459 142.399 99.4752 160.03 96.9486C166.458 96.0274 172.145 93.2586 176.644 89.2523C177.154 88.7974 177.858 88.6109 178.527 88.7815L188.945 91.438C190.581 91.8551 191.951 90.2026 191.235 88.6757L185.78 77.0424C185.554 76.5607 185.531 76.0124 185.698 75.5119C187.284 70.7715 187.788 65.5748 186.962 60.2606Z" fill="white"/>
<path d="M185.78 77.0424L188.5 75.7997L188.5 75.7997L185.78 77.0424ZM185.698 75.5119L188.55 76.4878L185.698 75.5119ZM188.945 91.438L189.659 88.5372L188.945 91.438ZM191.235 88.6757L193.955 87.4331L191.235 88.6757ZM176.644 89.2523L178.66 91.4954L176.644 89.2523ZM178.527 88.7815L179.241 85.8807L178.527 88.7815ZM150.51 35.6868C166.479 33.3983 181.488 44.5662 183.993 60.6862L189.932 59.835C186.925 40.4838 168.881 26.9932 149.589 29.7579L150.51 35.6868ZM126.087 68.9848C123.582 52.8648 134.542 37.9753 150.51 35.6868L149.589 29.7579C130.297 32.5227 117.14 50.4847 120.147 69.8359L126.087 68.9848ZM159.569 93.9841C143.6 96.2726 128.592 85.1047 126.087 68.9848L120.147 69.8359C123.154 89.1871 141.198 102.678 160.491 99.913L159.569 93.9841ZM174.627 87.0093C170.549 90.6408 165.398 93.1487 159.569 93.9841L160.491 99.913C167.517 98.906 173.741 95.8764 178.66 91.4954L174.627 87.0093ZM189.659 88.5372L179.241 85.8807L177.813 91.6824L188.231 94.3389L189.659 88.5372ZM183.059 78.285L188.515 89.9184L193.955 87.4331L188.5 75.7997L183.059 78.285ZM183.993 60.6862C184.744 65.5191 184.285 70.2357 182.846 74.536L188.55 76.4878C190.283 71.3073 190.833 65.6306 189.932 59.835L183.993 60.6862ZM188.5 75.7997C188.618 76.0527 188.613 76.301 188.55 76.4878L182.846 74.536C182.449 75.7239 182.489 77.0686 183.059 78.285L188.5 75.7997ZM188.231 94.3389C192.321 95.3816 195.745 91.2502 193.955 87.4331L188.515 89.9184C188.157 89.1549 188.842 88.3287 189.659 88.5372L188.231 94.3389ZM178.66 91.4954C178.474 91.6611 178.166 91.7725 177.813 91.6824L179.241 85.8807C177.549 85.4493 175.835 85.9337 174.627 87.0093L178.66 91.4954Z" fill="#71A691" mask="url(#path-6-inside-2_133_316)"/>
<line x1="142.363" y1="55.127" x2="168.12" y2="55.127" stroke="#71A691" stroke-width="3" stroke-linecap="round"/>
<line x1="142.363" y1="63.1152" x2="168.12" y2="63.1152" stroke="#71A691" stroke-width="3" stroke-linecap="round"/>
<line x1="142.363" y1="71.7715" x2="168.12" y2="71.7715" stroke="#71A691" stroke-width="3" stroke-linecap="round"/>
<path d="M126.821 51.3008L123.032 51.4928C100.115 52.6545 81.8056 70.99 80.6764 93.9085V93.9085" stroke="#71A691" stroke-width="3"/>
<path d="M132.172 145.521V145.521C155.698 146.706 176.254 129.738 179.549 106.414L180.657 98.5682" stroke="#71A691" stroke-width="3"/>
</svg>
