<svg width="271" height="197" viewBox="0 0 271 197" fill="none" xmlns="http://www.w3.org/2000/svg">
<rect width="271" height="197" rx="22" fill="#E6F0EC"/>
<rect x="74.4987" y="53.0938" width="122.323" height="99.4065" rx="14.5" fill="white" stroke="#71A691" stroke-width="3"/>
<path d="M95.198 43V62.3355" stroke="#71A691" stroke-width="3" stroke-linecap="round"/>
<path d="M124.56 43V62.3355" stroke="#71A691" stroke-width="3" stroke-linecap="round"/>
<path d="M153.206 43V62.3355" stroke="#71A691" stroke-width="3" stroke-linecap="round"/>
<path d="M181.848 43V62.3355" stroke="#71A691" stroke-width="3" stroke-linecap="round"/>
<rect x="88.823" y="85.3193" width="21.3484" height="20.7818" rx="7.5" fill="white" stroke="#71A691" stroke-width="3"/>
<rect x="161.869" y="85.3193" width="21.3484" height="20.7818" rx="7.5" fill="white" stroke="#71A691" stroke-width="3"/>
<rect x="88.823" y="121.353" width="21.3484" height="20.7818" rx="7.5" fill="white" stroke="#71A691" stroke-width="3"/>
<rect x="124.631" y="121.353" width="22.0645" height="20.7818" rx="7.5" fill="white" stroke="#71A691" stroke-width="3"/>
<rect x="124.631" y="121.353" width="22.0645" height="20.7818" rx="7.5" fill="white" stroke="#71A691" stroke-width="3"/>
<rect x="161.869" y="121.353" width="21.3484" height="20.7818" rx="7.5" fill="white" stroke="#71A691" stroke-width="3"/>
<path d="M124.562 96.027L130.22 103.061C131.469 104.614 133.858 104.539 135.008 102.912L147.478 85.2607" stroke="#71A691" stroke-width="3" stroke-linecap="round"/>
<path d="M72.9987 73.2949L197.605 73.2949" stroke="#71A691" stroke-width="3"/>
</svg>
