<svg width="180" height="180" viewBox="0 0 180 180" fill="none" xmlns="http://www.w3.org/2000/svg">
<circle cx="90" cy="90" r="90" fill="#E6F0EC"/>
<path d="M48.7928 78.8456L48.7974 99.1141C48.7982 102.647 44.8705 104.815 41.8492 102.918C39.2804 101.306 37.7077 98.4768 37.707 95.4502L37.7056 89.2308L37.7041 82.5972C37.7034 79.375 39.499 76.4206 42.3598 74.937C45.2921 73.4164 48.7921 75.5429 48.7928 78.8456Z" fill="white" stroke="#71A691" stroke-width="3"/>
<path d="M131.684 79.4755L131.679 99.7439C131.678 103.276 135.606 105.445 138.627 103.548C141.196 101.936 142.769 99.1066 142.769 96.0801L142.771 89.8607L142.772 83.2271C142.773 80.0049 140.977 77.0504 138.117 75.5669C135.184 74.0463 131.684 76.1728 131.684 79.4755Z" fill="white" stroke="#71A691" stroke-width="3"/>
<path d="M43.1447 72.8397L44.3951 68.84C49.7551 51.6958 64.5843 39.2256 82.3937 36.8861V36.8861C86.8738 36.2975 91.4088 36.2566 95.8988 36.7641L96.769 36.8625C117.124 39.1634 133.67 54.3342 137.724 74.414V74.414" stroke="#71A691" stroke-width="3" stroke-linecap="round"/>
<path d="M137.4 104.957V113.648C137.4 126.933 126.63 137.703 113.345 137.703H104.038" stroke="#71A691" stroke-width="3" stroke-linecap="round"/>
<rect x="73.1466" y="132.275" width="29.3902" height="10.2245" rx="5.11225" fill="white" stroke="#71A691" stroke-width="3"/>
<mask id="path-7-inside-1_133_203" fill="white">
<path fill-rule="evenodd" clip-rule="evenodd" d="M73.9611 67.1738C67.3185 67.1738 61.9336 72.5587 61.9336 79.2013V92.9306C61.9336 98.617 65.8797 103.382 71.1828 104.636L71.1759 110.8C71.1735 112.929 73.6718 114.054 75.3801 112.693L85.0924 104.958H106.913C113.556 104.958 118.94 99.5732 118.94 92.9306V79.2013C118.94 72.5587 113.556 67.1738 106.913 67.1738H73.9611Z"/>
</mask>
<path fill-rule="evenodd" clip-rule="evenodd" d="M73.9611 67.1738C67.3185 67.1738 61.9336 72.5587 61.9336 79.2013V92.9306C61.9336 98.617 65.8797 103.382 71.1828 104.636L71.1759 110.8C71.1735 112.929 73.6718 114.054 75.3801 112.693L85.0924 104.958H106.913C113.556 104.958 118.94 99.5732 118.94 92.9306V79.2013C118.94 72.5587 113.556 67.1738 106.913 67.1738H73.9611Z" fill="white"/>
<path d="M71.1828 104.636L74.1828 104.639L74.1855 102.263L71.8732 101.716L71.1828 104.636ZM71.1759 110.8L74.1759 110.803L74.1759 110.803L71.1759 110.8ZM75.3801 112.693L73.5111 110.347L73.5111 110.347L75.3801 112.693ZM85.0924 104.958V101.958H84.0437L83.2234 102.611L85.0924 104.958ZM64.9336 79.2013C64.9336 74.2156 68.9753 70.1738 73.9611 70.1738V64.1738C65.6616 64.1738 58.9336 70.9018 58.9336 79.2013H64.9336ZM64.9336 92.9306V79.2013H58.9336V92.9306H64.9336ZM71.8732 101.716C67.8929 100.775 64.9336 97.1947 64.9336 92.9306H58.9336C58.9336 100.039 63.8665 105.988 70.4925 107.555L71.8732 101.716ZM74.1759 110.803L74.1828 104.639L68.1828 104.632L68.1759 110.797L74.1759 110.803ZM73.5111 110.347C73.5314 110.331 73.5896 110.298 73.6716 110.289C73.7427 110.281 73.809 110.293 73.8684 110.32C73.9278 110.347 74.0058 110.4 74.0732 110.5C74.1486 110.611 74.176 110.729 74.1759 110.803L68.1759 110.797C68.1704 115.683 73.7667 117.814 77.2491 115.04L73.5111 110.347ZM83.2234 102.611L73.5111 110.347L77.2491 115.04L86.9614 107.305L83.2234 102.611ZM106.913 101.958H85.0924V107.958H106.913V101.958ZM115.94 92.9306C115.94 97.9164 111.899 101.958 106.913 101.958V107.958C115.212 107.958 121.94 101.23 121.94 92.9306H115.94ZM115.94 79.2013V92.9306H121.94V79.2013H115.94ZM106.913 70.1738C111.899 70.1738 115.94 74.2156 115.94 79.2013H121.94C121.94 70.9019 115.212 64.1738 106.913 64.1738V70.1738ZM73.9611 70.1738H106.913V64.1738H73.9611V70.1738Z" fill="#71A691" mask="url(#path-7-inside-1_133_203)"/>
<circle cx="75.2353" cy="86.5396" r="3.38333" stroke="#71A691" stroke-width="3"/>
<circle cx="91.9774" cy="86.5396" r="3.38333" stroke="#71A691" stroke-width="3"/>
<circle cx="108.722" cy="86.5396" r="3.38333" stroke="#71A691" stroke-width="3"/>
</svg>
