<svg width="180" height="180" viewBox="0 0 180 180" fill="none" xmlns="http://www.w3.org/2000/svg">
<circle cx="90" cy="90" r="90" fill="#E6F0EC"/>
<mask id="path-2-inside-1_133_159" fill="white">
<path fill-rule="evenodd" clip-rule="evenodd" d="M40.2925 93.0708C36.8146 88.3998 35 82.1098 35 75.4572C35 61.9499 46.1025 51 59.7982 51C68.7676 51 76.6249 55.6965 80.9796 62.7322C85.3343 55.6965 93.1916 51 102.161 51C115.857 51 126.959 61.9499 126.959 75.4572C126.959 80.1331 125.885 84.4734 123.913 88.15C123.87 88.3139 123.804 88.4765 123.715 88.6347L122.272 91.1779L120.026 94.4445L116.175 99.9975L111.042 107.184L103.983 115.677L84.9182 136.197C84.1686 137.004 82.9078 137.053 82.0979 136.307L59.7052 115.677L50.7213 106.204L45.2668 99.9975L41.7374 95.4244L40.2925 93.0708Z"/>
</mask>
<path fill-rule="evenodd" clip-rule="evenodd" d="M40.2925 93.0708C36.8146 88.3998 35 82.1098 35 75.4572C35 61.9499 46.1025 51 59.7982 51C68.7676 51 76.6249 55.6965 80.9796 62.7322C85.3343 55.6965 93.1916 51 102.161 51C115.857 51 126.959 61.9499 126.959 75.4572C126.959 80.1331 125.885 84.4734 123.913 88.15C123.87 88.3139 123.804 88.4765 123.715 88.6347L122.272 91.1779L120.026 94.4445L116.175 99.9975L111.042 107.184L103.983 115.677L84.9182 136.197C84.1686 137.004 82.9078 137.053 82.0979 136.307L59.7052 115.677L50.7213 106.204L45.2668 99.9975L41.7374 95.4244L40.2925 93.0708Z" fill="white"/>
<path d="M40.2925 93.0708L42.8492 91.5012L42.7789 91.3868L42.6988 91.2791L40.2925 93.0708ZM80.9796 62.7322L78.4287 64.3111L80.9796 68.4324L83.5305 64.3111L80.9796 62.7322ZM123.913 88.15L121.27 86.7319L121.103 87.0429L121.013 87.3842L123.913 88.15ZM123.715 88.6347L126.324 90.1152L126.324 90.1152L123.715 88.6347ZM122.272 91.1779L124.744 92.8777L124.817 92.771L124.881 92.6585L122.272 91.1779ZM120.026 94.4445L122.491 96.1538L122.498 96.1442L120.026 94.4445ZM116.175 99.9975L118.617 101.741L118.629 101.724L118.641 101.707L116.175 99.9975ZM111.042 107.184L113.349 109.101L113.419 109.017L113.483 108.928L111.042 107.184ZM103.983 115.677L106.181 117.719L106.237 117.658L106.29 117.594L103.983 115.677ZM84.9182 136.197L87.1161 138.239L87.1161 138.239L84.9182 136.197ZM82.0979 136.307L80.0652 138.513L80.0652 138.513L82.0979 136.307ZM59.7052 115.677L57.5285 117.741L57.5981 117.815L57.6725 117.883L59.7052 115.677ZM50.7213 106.204L48.4679 108.184L48.5055 108.227L48.5446 108.268L50.7213 106.204ZM45.2668 99.9975L42.8919 101.83L42.9503 101.906L43.0134 101.978L45.2668 99.9975ZM41.7374 95.4244L39.1808 96.994L39.2646 97.1305L39.3625 97.2573L41.7374 95.4244ZM42.6988 91.2791C39.6807 87.2259 38 81.601 38 75.4572H32C32 82.6185 33.9484 89.5738 37.8863 94.8624L42.6988 91.2791ZM38 75.4572C38 63.6458 47.7201 54 59.7982 54V48C44.485 48 32 60.254 32 75.4572H38ZM59.7982 54C67.6987 54 74.6049 58.1331 78.4287 64.3111L83.5305 61.1533C78.6449 53.2599 69.8366 48 59.7982 48V54ZM83.5305 64.3111C87.3543 58.1331 94.2605 54 102.161 54V48C92.1226 48 83.3143 53.2599 78.4287 61.1533L83.5305 64.3111ZM102.161 54C114.239 54 123.959 63.6457 123.959 75.4572H129.959C129.959 60.254 117.474 48 102.161 48V54ZM123.959 75.4572C123.959 79.6755 122.991 83.523 121.27 86.7319L126.557 89.5681C128.78 85.4237 129.959 80.5908 129.959 75.4572H123.959ZM121.013 87.3842C121.036 87.2974 121.068 87.22 121.105 87.1542L126.324 90.1152C126.541 89.7331 126.704 89.3303 126.814 88.9158L121.013 87.3842ZM121.105 87.1542L119.662 89.6974L124.881 92.6585L126.324 90.1152L121.105 87.1542ZM119.8 89.4782L117.554 92.7447L122.498 96.1442L124.744 92.8777L119.8 89.4782ZM117.56 92.7351L113.71 98.2881L118.641 101.707L122.491 96.1538L117.56 92.7351ZM113.734 98.2537L108.601 105.44L113.483 108.928L118.617 101.741L113.734 98.2537ZM108.735 105.266L101.676 113.759L106.29 117.594L113.349 109.101L108.735 105.266ZM101.785 113.635L82.7204 134.155L87.1161 138.239L106.181 117.719L101.785 113.635ZM82.7204 134.155C83.0952 133.752 83.7256 133.727 84.1306 134.1L80.0652 138.513C82.09 140.379 85.2421 140.256 87.1161 138.239L82.7204 134.155ZM84.1306 134.1L61.7379 113.47L57.6725 117.883L80.0652 138.513L84.1306 134.1ZM61.882 113.612L52.8981 104.139L48.5446 108.268L57.5285 117.741L61.882 113.612ZM52.9748 104.223L47.5203 98.0171L43.0134 101.978L48.4679 108.184L52.9748 104.223ZM47.6418 98.1646L44.1124 93.5915L39.3625 97.2573L42.8919 101.83L47.6418 98.1646ZM44.2941 93.8548L42.8492 91.5012L37.7359 94.6403L39.1808 96.994L44.2941 93.8548Z" fill="#71A691" mask="url(#path-2-inside-1_133_159)"/>
<mask id="path-4-inside-2_133_159" fill="white">
<path fill-rule="evenodd" clip-rule="evenodd" d="M83.3029 108.734C80.6573 105.516 79.277 101.182 79.277 96.5975C79.277 87.2905 87.7217 79.7456 98.1388 79.7456C104.961 79.7456 110.937 82.9815 114.25 87.8291C117.562 82.9815 123.538 79.7456 130.36 79.7456C140.777 79.7456 149.222 87.2905 149.222 96.5975C149.222 100.207 148.197 103.526 146.335 106.237C146.285 106.387 146.216 106.536 146.126 106.68L145.657 107.429L143.948 109.68L141.02 113.506L137.115 118.457L131.746 124.309L117.506 138.194C116.772 138.91 115.616 138.955 114.828 138.298L98.0677 124.309L91.2344 117.782L87.0856 113.506L84.4011 110.355L83.3029 108.734Z"/>
</mask>
<path fill-rule="evenodd" clip-rule="evenodd" d="M83.3029 108.734C80.6573 105.516 79.277 101.182 79.277 96.5975C79.277 87.2905 87.7217 79.7456 98.1388 79.7456C104.961 79.7456 110.937 82.9815 114.25 87.8291C117.562 82.9815 123.538 79.7456 130.36 79.7456C140.777 79.7456 149.222 87.2905 149.222 96.5975C149.222 100.207 148.197 103.526 146.335 106.237C146.285 106.387 146.216 106.536 146.126 106.68L145.657 107.429L143.948 109.68L141.02 113.506L137.115 118.457L131.746 124.309L117.506 138.194C116.772 138.91 115.616 138.955 114.828 138.298L98.0677 124.309L91.2344 117.782L87.0856 113.506L84.4011 110.355L83.3029 108.734Z" fill="white"/>
<path d="M83.3029 108.734L85.7863 107.051L85.7085 106.936L85.6204 106.829L83.3029 108.734ZM114.25 87.8291L111.773 89.5216L114.25 93.1467L116.726 89.5216L114.25 87.8291ZM146.335 106.237L143.862 104.538L143.62 104.89L143.486 105.295L146.335 106.237ZM146.126 106.68L148.668 108.273L148.668 108.273L146.126 106.68ZM145.657 107.429L148.046 109.243L148.128 109.135L148.199 109.021L145.657 107.429ZM143.948 109.68L146.331 111.503L146.338 111.493L143.948 109.68ZM141.02 113.506L143.375 115.363L143.389 115.346L143.402 115.329L141.02 113.506ZM137.115 118.457L139.326 120.486L139.401 120.403L139.471 120.315L137.115 118.457ZM131.746 124.309L133.84 126.457L133.9 126.399L133.957 126.338L131.746 124.309ZM117.506 138.194L119.6 140.342L119.6 140.342L117.506 138.194ZM114.828 138.298L112.906 140.601L112.906 140.601L114.828 138.298ZM98.0677 124.309L95.9955 126.479L96.0682 126.548L96.1454 126.613L98.0677 124.309ZM91.2344 117.782L89.0812 119.871L89.1209 119.912L89.1622 119.952L91.2344 117.782ZM87.0856 113.506L84.802 115.451L84.8649 115.525L84.9324 115.595L87.0856 113.506ZM84.4011 110.355L81.9176 112.038L82.0103 112.175L82.1175 112.3L84.4011 110.355ZM85.6204 106.829C83.4858 104.232 82.277 100.605 82.277 96.5975H76.277C76.277 101.758 77.8288 106.799 80.9854 110.639L85.6204 106.829ZM82.277 96.5975C82.277 89.2562 89.0518 82.7456 98.1388 82.7456V76.7456C86.3917 76.7456 76.277 85.3247 76.277 96.5975H82.277ZM98.1388 82.7456C104.025 82.7456 109.05 85.5368 111.773 89.5216L116.726 86.1366C112.825 80.4262 105.897 76.7456 98.1388 76.7456V82.7456ZM116.726 89.5216C119.449 85.5368 124.474 82.7456 130.36 82.7456V76.7456C122.602 76.7456 115.674 80.4262 111.773 86.1366L116.726 89.5216ZM130.36 82.7456C139.447 82.7456 146.222 89.2562 146.222 96.5975H152.222C152.222 85.3247 142.107 76.7456 130.36 76.7456V82.7456ZM146.222 96.5975C146.222 99.6331 145.363 102.353 143.862 104.538L148.808 107.935C151.032 104.698 152.222 100.78 152.222 96.5975H146.222ZM143.486 105.295C143.513 105.216 143.546 105.146 143.583 105.088L148.668 108.273C148.885 107.926 149.058 107.559 149.183 107.178L143.486 105.295ZM143.583 105.088L143.114 105.836L148.199 109.021L148.668 108.273L143.583 105.088ZM143.267 105.615L141.559 107.866L146.338 111.493L148.046 109.243L143.267 105.615ZM141.566 107.856L138.637 111.682L143.402 115.329L146.331 111.503L141.566 107.856ZM138.664 111.648L134.759 116.6L139.471 120.315L143.375 115.363L138.664 111.648ZM134.904 116.429L129.535 122.281L133.957 126.338L139.326 120.486L134.904 116.429ZM129.652 122.161L115.412 136.046L119.6 140.342L133.84 126.457L129.652 122.161ZM115.412 136.046C115.779 135.688 116.357 135.666 116.751 135.994L112.906 140.601C114.874 142.243 117.765 142.132 119.6 140.342L115.412 136.046ZM116.751 135.994L99.9899 122.006L96.1454 126.613L112.906 140.601L116.751 135.994ZM100.14 122.14L93.3065 115.613L89.1622 119.952L95.9955 126.479L100.14 122.14ZM93.3876 115.693L89.2388 111.417L84.9324 115.595L89.0812 119.871L93.3876 115.693ZM89.3692 111.56L86.6847 108.409L82.1175 112.3L84.802 115.451L89.3692 111.56ZM86.8846 108.672L85.7863 107.051L80.8194 110.417L81.9176 112.038L86.8846 108.672Z" fill="#71A691" mask="url(#path-4-inside-2_133_159)"/>
<path d="M111.283 125.692V125.692C112.799 127.152 114.431 128.506 116.164 129.744V129.744" stroke="#71A691" stroke-width="3"/>
<path d="M98.1133 113.547L98.5625 114.028C101.723 117.409 105.162 120.56 108.851 123.45V123.45" stroke="#71A691" stroke-width="3"/>
<path d="M58.6855 101.728L59.2762 102.425C63.4307 107.333 67.9533 111.905 72.8031 116.1V116.1" stroke="#71A691" stroke-width="3"/>
<path d="M76 119.354V119.354C77.9932 121.473 80.1381 123.439 82.4171 125.234V125.234" stroke="#71A691" stroke-width="3"/>
</svg>
