<svg width="180" height="180" viewBox="0 0 180 180" fill="none" xmlns="http://www.w3.org/2000/svg">
<circle cx="90" cy="90" r="90" fill="#E6F0EC"/>
<path d="M78.499 77.5L99.499 78.5L106.499 114L70.499 113.5L78.499 77.5Z" fill="white"/>
<mask id="path-3-inside-1_133_267" fill="white">
<path fill-rule="evenodd" clip-rule="evenodd" d="M137.77 52.291C136.813 52.291 136.037 53.0669 136.037 54.0239V60.0562C136.037 60.5367 135.648 60.9262 135.167 60.9262H128.785C127.828 60.9262 127.052 61.7021 127.052 62.6591V67.1645C127.052 68.1216 127.828 68.8974 128.785 68.8974H135.167C135.648 68.8974 136.037 69.2869 136.037 69.7674V75.8003C136.037 76.7573 136.813 77.5332 137.77 77.5332H142.007C142.964 77.5332 143.74 76.7573 143.74 75.8003V69.7674C143.74 69.2869 144.129 68.8974 144.61 68.8974H150.353C151.31 68.8974 152.086 68.1216 152.086 67.1645V62.6591C152.086 61.7021 151.31 60.9262 150.353 60.9262H144.61C144.129 60.9262 143.74 60.5367 143.74 60.0562V54.0239C143.74 53.0669 142.964 52.291 142.007 52.291H137.77Z"/>
</mask>
<path fill-rule="evenodd" clip-rule="evenodd" d="M137.77 52.291C136.813 52.291 136.037 53.0669 136.037 54.0239V60.0562C136.037 60.5367 135.648 60.9262 135.167 60.9262H128.785C127.828 60.9262 127.052 61.7021 127.052 62.6591V67.1645C127.052 68.1216 127.828 68.8974 128.785 68.8974H135.167C135.648 68.8974 136.037 69.2869 136.037 69.7674V75.8003C136.037 76.7573 136.813 77.5332 137.77 77.5332H142.007C142.964 77.5332 143.74 76.7573 143.74 75.8003V69.7674C143.74 69.2869 144.129 68.8974 144.61 68.8974H150.353C151.31 68.8974 152.086 68.1216 152.086 67.1645V62.6591C152.086 61.7021 151.31 60.9262 150.353 60.9262H144.61C144.129 60.9262 143.74 60.5367 143.74 60.0562V54.0239C143.74 53.0669 142.964 52.291 142.007 52.291H137.77Z" fill="white"/>
<path d="M138.237 54.0239C138.237 54.2819 138.028 54.491 137.77 54.491V50.091C135.598 50.091 133.837 51.8518 133.837 54.0239H138.237ZM138.237 60.0562V54.0239H133.837V60.0562H138.237ZM135.167 58.7262H128.785V63.1262H135.167V58.7262ZM128.785 58.7262C126.613 58.7262 124.852 60.487 124.852 62.6591H129.252C129.252 62.9171 129.043 63.1262 128.785 63.1262V58.7262ZM124.852 62.6591V67.1645H129.252V62.6591H124.852ZM124.852 67.1645C124.852 69.3366 126.613 71.0974 128.785 71.0974V66.6974C129.043 66.6974 129.252 66.9065 129.252 67.1645H124.852ZM128.785 71.0974H135.167V66.6974H128.785V71.0974ZM138.237 75.8003V69.7674H133.837V75.8003H138.237ZM137.77 75.3332C138.028 75.3332 138.237 75.5423 138.237 75.8003H133.837C133.837 77.9724 135.598 79.7332 137.77 79.7332V75.3332ZM142.007 75.3332H137.77V79.7332H142.007V75.3332ZM141.54 75.8003C141.54 75.5423 141.749 75.3332 142.007 75.3332V79.7332C144.179 79.7332 145.94 77.9724 145.94 75.8003H141.54ZM141.54 69.7674V75.8003H145.94V69.7674H141.54ZM144.61 71.0974H150.353V66.6974H144.61V71.0974ZM150.353 71.0974C152.525 71.0974 154.286 69.3366 154.286 67.1645H149.886C149.886 66.9065 150.095 66.6974 150.353 66.6974V71.0974ZM154.286 67.1645V62.6591H149.886V67.1645H154.286ZM154.286 62.6591C154.286 60.487 152.525 58.7262 150.353 58.7262V63.1262C150.095 63.1262 149.886 62.9171 149.886 62.6591H154.286ZM150.353 58.7262H144.61V63.1262H150.353V58.7262ZM141.54 54.0239V60.0562H145.94V54.0239H141.54ZM142.007 54.491C141.749 54.491 141.54 54.2819 141.54 54.0239H145.94C145.94 51.8518 144.179 50.091 142.007 50.091V54.491ZM137.77 54.491H142.007V50.091H137.77V54.491ZM144.61 58.7262C145.344 58.7262 145.94 59.3217 145.94 60.0562H141.54C141.54 61.7517 142.914 63.1262 144.61 63.1262V58.7262ZM145.94 69.7674C145.94 70.502 145.344 71.0974 144.61 71.0974V66.6974C142.914 66.6974 141.54 68.0719 141.54 69.7674H145.94ZM135.167 71.0974C134.432 71.0974 133.837 70.502 133.837 69.7674H138.237C138.237 68.0719 136.863 66.6974 135.167 66.6974V71.0974ZM133.837 60.0562C133.837 59.3217 134.432 58.7262 135.167 58.7262V63.1262C136.863 63.1262 138.237 61.7517 138.237 60.0562H133.837Z" fill="#71A691" mask="url(#path-3-inside-1_133_267)"/>
<mask id="path-5-inside-2_133_267" fill="white">
<path fill-rule="evenodd" clip-rule="evenodd" d="M28.5495 68.6292C27.4742 67.4157 26.9111 65.6885 26.9111 63.8531C26.9111 60.4075 29.8561 57.6143 33.4889 57.6143C35.8681 57.6143 37.9523 58.8124 39.1074 60.6072C40.2624 58.8124 42.3466 57.6143 44.7258 57.6143C48.3586 57.6143 51.3036 60.4075 51.3036 63.8531C51.3036 65.278 50.8971 66.5807 50.1635 67.6186C50.142 67.7013 50.1085 67.7832 50.0617 67.8625L49.4659 68.6957L48.4447 70.1123L47.0829 71.9455L45.2106 74.1119L42.1004 77.3313C40.8109 78.6662 38.6986 78.7482 37.3094 77.5173L33.4659 74.1119L31.0829 71.6955L29.6361 70.1123L28.6999 68.9457C28.6345 68.8432 28.5847 68.737 28.5495 68.6292Z"/>
</mask>
<path fill-rule="evenodd" clip-rule="evenodd" d="M28.5495 68.6292C27.4742 67.4157 26.9111 65.6885 26.9111 63.8531C26.9111 60.4075 29.8561 57.6143 33.4889 57.6143C35.8681 57.6143 37.9523 58.8124 39.1074 60.6072C40.2624 58.8124 42.3466 57.6143 44.7258 57.6143C48.3586 57.6143 51.3036 60.4075 51.3036 63.8531C51.3036 65.278 50.8971 66.5807 50.1635 67.6186C50.142 67.7013 50.1085 67.7832 50.0617 67.8625L49.4659 68.6957L48.4447 70.1123L47.0829 71.9455L45.2106 74.1119L42.1004 77.3313C40.8109 78.6662 38.6986 78.7482 37.3094 77.5173L33.4659 74.1119L31.0829 71.6955L29.6361 70.1123L28.6999 68.9457C28.6345 68.8432 28.5847 68.737 28.5495 68.6292Z" fill="white"/>
<path d="M28.5495 68.6292L30.6405 67.9456L30.4987 67.5118L30.196 67.1702L28.5495 68.6292ZM39.1074 60.6072L37.2574 61.7978L39.1074 64.6723L40.9574 61.7978L39.1074 60.6072ZM50.1635 67.6186L48.367 66.3488L48.1351 66.6768L48.0341 67.0656L50.1635 67.6186ZM50.0617 67.8625L51.8513 69.142L51.9074 69.0635L51.9565 68.9804L50.0617 67.8625ZM49.4659 68.6957L51.2505 69.9824L51.2556 69.9753L49.4659 68.6957ZM48.4447 70.1123L50.2107 71.4242L50.2201 71.4116L50.2292 71.3989L48.4447 70.1123ZM47.0829 71.9455L48.7475 73.384L48.8006 73.3225L48.849 73.2573L47.0829 71.9455ZM45.2106 74.1119L46.7928 75.6405L46.8352 75.5966L46.8751 75.5505L45.2106 74.1119ZM42.1004 77.3313L40.5182 75.8028L40.5182 75.8028L42.1004 77.3313ZM37.3094 77.5173L38.7683 75.8706L38.7683 75.8706L37.3094 77.5173ZM33.4659 74.1119L31.8994 75.6567L31.9514 75.7094L32.0069 75.7586L33.4659 74.1119ZM31.0829 71.6955L29.4589 73.1796L29.4871 73.2105L29.5164 73.2402L31.0829 71.6955ZM29.6361 70.1123L27.9202 71.4892L27.9644 71.5443L28.012 71.5964L29.6361 70.1123ZM28.6999 68.9457L26.8455 70.1295L26.9096 70.2298L26.9841 70.3227L28.6999 68.9457ZM30.196 67.1702C29.5489 66.4399 29.1111 65.2697 29.1111 63.8531H24.7111C24.7111 66.1073 25.3994 68.3915 26.9029 70.0883L30.196 67.1702ZM29.1111 63.8531C29.1111 61.7307 30.96 59.8143 33.4889 59.8143V55.4143C28.7522 55.4143 24.7111 59.0842 24.7111 63.8531H29.1111ZM33.4889 59.8143C35.1238 59.8143 36.5093 60.6354 37.2574 61.7978L40.9574 59.4166C39.3952 56.9893 36.6123 55.4143 33.4889 55.4143V59.8143ZM40.9574 61.7978C41.7054 60.6354 43.0909 59.8143 44.7258 59.8143V55.4143C41.6024 55.4143 38.8195 56.9893 37.2574 59.4166L40.9574 61.7978ZM44.7258 59.8143C47.2547 59.8143 49.1036 61.7307 49.1036 63.8531H53.5036C53.5036 59.0842 49.4626 55.4143 44.7258 55.4143V59.8143ZM49.1036 63.8531C49.1036 64.8592 48.8181 65.7106 48.367 66.3488L51.96 68.8885C52.9762 67.4508 53.5036 65.6968 53.5036 63.8531H49.1036ZM48.0341 67.0656C48.0644 66.9492 48.1099 66.8411 48.1669 66.7446L51.9565 68.9804C52.107 68.7253 52.2197 68.4533 52.2928 68.1717L48.0341 67.0656ZM48.272 66.583L47.6763 67.4162L51.2556 69.9753L51.8513 69.142L48.272 66.583ZM47.6814 67.4091L46.6601 68.8257L50.2292 71.3989L51.2505 69.9824L47.6814 67.4091ZM46.6786 68.8004L45.3169 70.6336L48.849 73.2573L50.2107 71.4242L46.6786 68.8004ZM45.4184 70.5069L43.5461 72.6734L46.8751 75.5505L48.7475 73.384L45.4184 70.5069ZM43.6283 72.5834L40.5182 75.8028L43.6827 78.8599L46.7928 75.6405L43.6283 72.5834ZM40.5182 75.8028C40.0473 76.2902 39.2758 76.3203 38.7683 75.8706L35.8505 79.164C38.1215 81.176 41.5745 81.0421 43.6827 78.8599L40.5182 75.8028ZM38.7683 75.8706L34.9248 72.4653L32.0069 75.7586L35.8505 79.164L38.7683 75.8706ZM35.0323 72.5672L32.6493 70.1507L29.5164 73.2402L31.8994 75.6567L35.0323 72.5672ZM32.7069 70.2114L31.2601 68.6282L28.012 71.5964L29.4589 73.1796L32.7069 70.2114ZM31.3519 68.7353L30.4157 67.5688L26.9841 70.3227L27.9202 71.4892L31.3519 68.7353ZM30.5543 67.762C30.5881 67.8149 30.618 67.8767 30.6405 67.9456L26.4584 69.3129C26.5514 69.5974 26.6808 69.8715 26.8455 70.1295L30.5543 67.762Z" fill="#71A691" mask="url(#path-5-inside-2_133_267)"/>
<path d="M34.5153 84.5349L58.5056 97.8471L54.9997 104.999L30.9325 90.9915L32.4993 86.9994L34.5153 84.5349Z" fill="white"/>
<path d="M75.5 73.5L78.5003 76L83.0012 80.5L56.5145 103.224L50.0004 96.0993L75.5 73.5Z" fill="white"/>
<path d="M76.7802 88.3331C77.2464 87.9057 77.2843 87.0613 76.8648 86.4472C76.4454 85.8331 75.7274 85.6817 75.2612 86.1092L76.7802 88.3331ZM40.9048 87.2212L40.484 88.4074L40.5087 88.4227L40.5338 88.4367L40.9048 87.2212ZM57.7444 103.979L58.5039 105.091L57.7444 103.979ZM52.6414 103.272L34.5431 93.2489L33.8071 95.6833L51.9054 105.707L52.6414 103.272ZM58.5039 105.091L76.7802 88.3331L75.2612 86.1092L56.9848 102.867L58.5039 105.091ZM36.8686 86.1635L40.484 88.4074L41.3256 86.035L37.7103 83.7911L36.8686 86.1635ZM40.5338 88.4367L51.3159 94.4484L52.058 92.0174L41.2758 86.0057L40.5338 88.4367ZM32.5864 87.5538C33.3309 85.7474 35.2134 85.1362 36.8686 86.1635L37.7103 83.7911C34.9321 82.0669 31.7726 83.0927 30.523 86.1246L32.5864 87.5538ZM34.5431 93.2489C32.6678 92.2103 31.7583 89.5631 32.5864 87.5538L30.523 86.1246C29.133 89.497 30.6596 93.9401 33.8071 95.6833L34.5431 93.2489ZM51.9054 105.707C54.1863 106.97 56.7116 106.734 58.5039 105.091L56.9848 102.867C55.805 103.949 54.1428 104.104 52.6414 103.272L51.9054 105.707Z" fill="#71A691"/>
<path d="M51.2809 93.024V93.024C52.1892 93.6667 53.2685 93.6172 53.9973 92.8994L73.8907 73.3058L75.378 72.2271" stroke="#71A691" stroke-width="2.5"/>
<path d="M142.343 84.2751L118.352 97.5873L122.112 105.198L146.161 91.1567L144.459 86.9199L142.343 84.2751Z" fill="white"/>
<path d="M101.5 72.9375L98.5002 75.4375L93.9993 79.9375L120.486 102.662L127 95.5368L101.5 72.9375Z" fill="white"/>
<path d="M125.708 93.0141L136.49 87.0024L140.106 84.7586C142.322 83.3828 144.843 84.2013 145.84 86.6204V86.6204C146.949 89.3113 145.731 92.8565 143.22 94.2474L125.122 104.271C123.23 105.318 121.137 105.123 119.651 103.76L101.374 87.0024" stroke="#71A691" stroke-width="2.5" stroke-linecap="round"/>
<path d="M126.114 92.8052V92.8052C125.206 93.4479 124.126 93.3984 123.398 92.6806L103.504 73.087L102.017 72.0084" stroke="#71A691" stroke-width="2.5"/>
<path d="M76.0216 87.1504L70.5654 112.385" stroke="#71A691" stroke-width="2.5" stroke-linecap="round"/>
<path d="M101.376 86.8418L106.832 113" stroke="#71A691" stroke-width="2.5" stroke-linecap="round"/>
<path d="M99.999 122.5L119.999 115.5L125.999 120L124.999 127.5L115.499 131.5L102.999 134L99.999 122.5Z" fill="white"/>
<path d="M58.8872 114.288L93.89 124.606C96.43 125.354 98.0257 127.9 97.5916 130.511C97.1089 133.414 94.3179 135.301 91.4462 134.665L55.8517 126.782C52.3814 126.014 50.1517 122.569 50.8715 119.088C51.6266 115.437 55.3074 113.233 58.8872 114.288Z" fill="white" stroke="#71A691" stroke-width="2.5"/>
<path d="M100.332 122.563L116.587 116.237C120.347 114.773 124.558 116.769 125.799 120.603V120.603C127.044 124.446 124.793 128.55 120.881 129.571L103.554 134.094" stroke="#71A691" stroke-width="2.5" stroke-linecap="round"/>
<path d="M104.618 61.2674C104.618 70.7065 97.2348 78.2847 88.2159 78.2847C79.1971 78.2847 71.8135 70.7065 71.8135 61.2674C71.8135 51.8282 79.1971 44.25 88.2159 44.25C97.2348 44.25 104.618 51.8282 104.618 61.2674Z" fill="white" stroke="#71A691" stroke-width="2.5"/>
</svg>
