<svg width="180" height="180" viewBox="0 0 180 180" fill="none" xmlns="http://www.w3.org/2000/svg">
<circle cx="90" cy="90" r="90" fill="#E6F0EC"/>
<mask id="path-2-inside-1_133_142" fill="white">
<path fill-rule="evenodd" clip-rule="evenodd" d="M71.9284 139.026C88.075 139.026 101.164 125.993 101.164 109.916C101.164 93.8391 88.075 80.8062 71.9284 80.8062C55.7819 80.8062 42.6925 93.8391 42.6925 109.916C42.6925 115.91 44.5118 121.48 47.6306 126.11C48.0205 126.689 48.1133 127.424 47.8463 128.068L44.8442 135.319C44.2012 136.872 45.6443 138.477 47.2567 138.003L56.3849 135.317C56.9119 135.161 57.4778 135.233 57.9607 135.495C62.1108 137.747 66.8696 139.026 71.9284 139.026Z"/>
</mask>
<path fill-rule="evenodd" clip-rule="evenodd" d="M71.9284 139.026C88.075 139.026 101.164 125.993 101.164 109.916C101.164 93.8391 88.075 80.8062 71.9284 80.8062C55.7819 80.8062 42.6925 93.8391 42.6925 109.916C42.6925 115.91 44.5118 121.48 47.6306 126.11C48.0205 126.689 48.1133 127.424 47.8463 128.068L44.8442 135.319C44.2012 136.872 45.6443 138.477 47.2567 138.003L56.3849 135.317C56.9119 135.161 57.4778 135.233 57.9607 135.495C62.1108 137.747 66.8696 139.026 71.9284 139.026Z" fill="white"/>
<path d="M56.3849 135.317L57.2318 138.195L56.3849 135.317ZM57.9607 135.495L59.3913 132.858L57.9607 135.495ZM44.8442 135.319L47.616 136.467L44.8442 135.319ZM47.2567 138.003L46.4098 135.125L47.2567 138.003ZM47.6306 126.11L45.1424 127.786L47.6306 126.11ZM47.8463 128.068L45.0745 126.921L47.8463 128.068ZM98.1643 109.916C98.1643 124.324 86.4304 136.026 71.9284 136.026V142.026C89.7196 142.026 104.164 127.662 104.164 109.916H98.1643ZM71.9284 83.8062C86.4304 83.8062 98.1643 95.5081 98.1643 109.916H104.164C104.164 92.17 89.7196 77.8062 71.9284 77.8062V83.8062ZM45.6925 109.916C45.6925 95.5081 57.4265 83.8062 71.9284 83.8062V77.8062C54.1373 77.8062 39.6925 92.17 39.6925 109.916H45.6925ZM50.1187 124.434C47.3227 120.283 45.6925 115.293 45.6925 109.916H39.6925C39.6925 116.526 41.701 122.677 45.1424 127.786L50.1187 124.434ZM47.616 136.467L50.6181 129.216L45.0745 126.921L42.0724 134.171L47.616 136.467ZM55.5379 132.439L46.4098 135.125L48.1036 140.881L57.2318 138.195L55.5379 132.439ZM71.9284 136.026C67.3811 136.026 63.1128 134.877 59.3913 132.858L56.5302 138.132C61.1089 140.616 66.3581 142.026 71.9284 142.026V136.026ZM57.2318 138.195C56.9533 138.276 56.703 138.226 56.5302 138.132L59.3913 132.858C58.2527 132.24 56.8704 132.046 55.5379 132.439L57.2318 138.195ZM42.0724 134.171C40.465 138.054 44.0726 142.067 48.1036 140.881L46.4098 135.125C47.216 134.888 47.9375 135.69 47.616 136.467L42.0724 134.171ZM45.1424 127.786C45.0063 127.584 44.9328 127.263 45.0745 126.921L50.6181 129.216C51.2938 127.584 51.0346 125.794 50.1187 124.434L45.1424 127.786Z" fill="#71A691" mask="url(#path-2-inside-1_133_142)"/>
<mask id="path-4-inside-2_133_142" fill="white">
<ellipse rx="1.90746" ry="1.91302" transform="matrix(0.999747 -0.0224889 0.0225613 0.999745 71.4687 127.434)"/>
</mask>
<ellipse rx="1.90746" ry="1.91302" transform="matrix(0.999747 -0.0224889 0.0225613 0.999745 71.4687 127.434)" fill="#71A691"/>
<path d="M70.3764 127.458C70.3631 126.866 70.8327 126.361 71.4442 126.347L71.5795 132.345C74.2974 132.284 76.4359 130.028 76.3749 127.323L70.3764 127.458ZM71.4442 126.347C72.0556 126.333 72.5476 126.817 72.561 127.409L66.5625 127.544C66.6235 130.248 68.8617 132.407 71.5795 132.345L71.4442 126.347ZM72.561 127.409C72.5743 128.001 72.1047 128.507 71.4932 128.52L71.3578 122.522C68.64 122.583 66.5014 124.839 66.5625 127.544L72.561 127.409ZM71.4932 128.52C70.8818 128.534 70.3898 128.05 70.3764 127.458L76.3749 127.323C76.3139 124.619 74.0757 122.461 71.3578 122.522L71.4932 128.52Z" fill="#71A691" mask="url(#path-4-inside-2_133_142)"/>
<path d="M62.0127 102.523L62.0542 101.382C62.2298 96.5572 66.2837 92.7887 71.1089 92.9654C71.5381 92.9811 71.9674 92.9968 72.3997 93.0126C76.5118 93.1632 79.7242 96.6188 79.5746 100.731V100.731C79.4962 102.883 78.4904 104.896 76.8165 106.251L75.376 107.416C72.4946 109.748 70.9111 113.324 71.1207 117.025L71.2582 119.452" stroke="#71A691" stroke-width="3" stroke-linecap="round"/>
<mask id="path-7-inside-3_133_142" fill="white">
<path fill-rule="evenodd" clip-rule="evenodd" d="M139.907 54.8652C137.448 38.9959 122.704 27.9639 106.974 30.2247C91.245 32.4855 80.4871 47.1828 82.9459 63.0522C85.4047 78.9215 100.149 89.9534 115.878 87.6927C121.57 86.8746 126.61 84.4285 130.609 80.8877C131.123 80.4331 131.827 80.2452 132.498 80.4167L141.235 82.6509C142.87 83.0691 144.242 81.4167 143.528 79.8892L138.886 69.9627C138.662 69.482 138.639 68.9351 138.805 68.4349C140.199 64.214 140.639 59.5916 139.907 54.8652Z"/>
</mask>
<path fill-rule="evenodd" clip-rule="evenodd" d="M139.907 54.8652C137.448 38.9959 122.704 27.9639 106.974 30.2247C91.245 32.4855 80.4871 47.1828 82.9459 63.0522C85.4047 78.9215 100.149 89.9534 115.878 87.6927C121.57 86.8746 126.61 84.4285 130.609 80.8877C131.123 80.4331 131.827 80.2452 132.498 80.4167L141.235 82.6509C142.87 83.0691 144.242 81.4167 143.528 79.8892L138.886 69.9627C138.662 69.482 138.639 68.9351 138.805 68.4349C140.199 64.214 140.639 59.5916 139.907 54.8652Z" fill="white"/>
<path d="M138.886 69.9627L136.165 71.2045L138.886 69.9627ZM138.805 68.4349L141.659 69.3987L138.805 68.4349ZM141.235 82.6509L140.517 85.5517L141.235 82.6509ZM143.528 79.8892L140.806 81.131L143.528 79.8892ZM130.609 80.8877L128.601 78.6392L130.609 80.8877ZM107.434 33.1893C121.494 31.1685 134.728 41.0305 136.937 55.292L142.876 54.4384C140.168 36.9612 123.914 24.7594 106.515 27.2601L107.434 33.1893ZM85.9154 62.6254C83.7057 48.3639 93.3736 35.2102 107.434 33.1893L106.515 27.2601C89.1163 29.7608 77.2685 46.0017 79.9764 63.479L85.9154 62.6254ZM115.419 84.728C101.359 86.7489 88.1251 76.8868 85.9154 62.6254L79.9764 63.479C82.6843 80.9562 98.9391 93.158 116.338 90.6573L115.419 84.728ZM128.601 78.6392C125.021 81.8085 120.514 83.9957 115.419 84.728L116.338 90.6573C122.625 89.7536 128.199 87.0485 132.618 83.1363L128.601 78.6392ZM141.953 79.7502L133.216 77.5159L131.78 83.3174L140.517 85.5517L141.953 79.7502ZM136.165 71.2045L140.806 81.131L146.249 78.6474L141.607 68.7209L136.165 71.2045ZM136.937 55.292C137.596 59.5415 137.2 63.6877 135.95 67.4711L141.659 69.3987C143.199 64.7403 143.683 59.6417 142.876 54.4384L136.937 55.292ZM141.607 68.7209C141.726 68.9747 141.719 69.2195 141.659 69.3987L135.95 67.4711C135.56 68.6507 135.597 69.9892 136.165 71.2045L141.607 68.7209ZM140.517 85.5517C144.605 86.5971 148.034 82.4661 146.249 78.6474L140.806 81.131C140.449 80.3673 141.135 79.5411 141.953 79.7502L140.517 85.5517ZM132.618 83.1363C132.439 83.2943 132.136 83.4085 131.78 83.3174L133.216 77.5159C131.519 77.0819 129.806 77.5718 128.601 78.6392L132.618 83.1363Z" fill="#71A691" mask="url(#path-7-inside-3_133_142)"/>
<line x1="100.499" y1="50.4995" x2="123.155" y2="50.4995" stroke="#71A691" stroke-width="3" stroke-linecap="round"/>
<line x1="100.499" y1="58.4995" x2="123.155" y2="58.4995" stroke="#71A691" stroke-width="3" stroke-linecap="round"/>
<line x1="100.499" y1="66.4995" x2="123.155" y2="66.4995" stroke="#71A691" stroke-width="3" stroke-linecap="round"/>
<path d="M86.2456 46.8506L82.9697 47.0171C62.4645 48.0596 46.0841 64.468 45.0767 84.9749V84.9749" stroke="#71A691" stroke-width="3"/>
<path d="M91.0228 131.155V131.155C112.012 132.215 130.345 117.078 133.277 96.2673L134.28 89.1428" stroke="#71A691" stroke-width="3"/>
</svg>
