<svg width="180" height="180" viewBox="0 0 180 180" fill="none" xmlns="http://www.w3.org/2000/svg">
<circle cx="90" cy="90" r="90" fill="#E6F0EC"/>
<ellipse cx="69" cy="101.5" rx="23" ry="23.5" fill="white"/>
<ellipse cx="109" cy="101.5" rx="23" ry="23.5" fill="white"/>
<path d="M48 110.5L129 112.5L112 143H65.5L48 110.5Z" fill="white"/>
<path d="M98.7326 102.665C98.7326 108.088 94.3352 112.484 88.91 112.484C83.4847 112.484 79.0873 108.088 79.0873 102.665C79.0873 97.2416 83.4847 92.8447 88.91 92.8447C94.3352 92.8447 98.7326 97.2416 98.7326 102.665Z" fill="white" stroke="#71A691" stroke-width="3"/>
<mask id="path-6-inside-1_133_176" fill="white">
<path fill-rule="evenodd" clip-rule="evenodd" d="M119.563 101.995C121.719 99.9967 121.747 96.7277 119.626 94.6931C117.558 92.7103 114.198 92.6242 112.023 94.4983L103.076 102.208L96.3196 108.896L95.5598 109.493C94.7049 110.164 93.7353 110.675 92.6981 111.001L91.7506 111.299L89.3116 111.682C89.2603 111.69 89.2084 111.694 89.1564 111.694H88.3587C87.274 111.694 86.1983 111.498 85.1834 111.115L84.6215 110.904L83.7795 110.507L81.6864 108.928L79.5896 106.952L73.4294 101.753L65.8099 94.6933C63.6919 92.7309 60.2856 92.7601 58.2016 94.7585C56.1175 96.757 56.1451 99.9679 58.263 101.93L76.0556 118.417L78.5673 144.001H89.0478H99.5283L100.96 119.232L119.563 101.995Z"/>
</mask>
<path fill-rule="evenodd" clip-rule="evenodd" d="M119.563 101.995C121.719 99.9967 121.747 96.7277 119.626 94.6931C117.558 92.7103 114.198 92.6242 112.023 94.4983L103.076 102.208L96.3196 108.896L95.5598 109.493C94.7049 110.164 93.7353 110.675 92.6981 111.001L91.7506 111.299L89.3116 111.682C89.2603 111.69 89.2084 111.694 89.1564 111.694H88.3587C87.274 111.694 86.1983 111.498 85.1834 111.115L84.6215 110.904L83.7795 110.507L81.6864 108.928L79.5896 106.952L73.4294 101.753L65.8099 94.6933C63.6919 92.7309 60.2856 92.7601 58.2016 94.7585C56.1175 96.757 56.1451 99.9679 58.263 101.93L76.0556 118.417L78.5673 144.001H89.0478H99.5283L100.96 119.232L119.563 101.995Z" fill="white"/>
<path d="M119.626 94.6931L121.702 92.5278L121.702 92.5278L119.626 94.6931ZM119.563 101.995L117.524 99.7941L117.524 99.7941L119.563 101.995ZM112.023 94.4983L113.982 96.7709L113.982 96.7709L112.023 94.4983ZM103.076 102.208L101.118 99.9357L101.039 100.003L100.966 100.076L103.076 102.208ZM96.3196 108.896L98.1728 111.255L98.3079 111.149L98.43 111.028L96.3196 108.896ZM95.5598 109.493L97.413 111.852L97.413 111.852L95.5598 109.493ZM92.6981 111.001L91.7988 108.139L91.7988 108.139L92.6981 111.001ZM91.7506 111.299L92.2162 114.263L92.4368 114.228L92.6499 114.161L91.7506 111.299ZM89.3116 111.682L88.846 108.718L88.8459 108.718L89.3116 111.682ZM85.1834 111.115L84.125 113.923L84.125 113.923L85.1834 111.115ZM84.6215 110.904L83.3425 113.617L83.4509 113.668L83.5631 113.711L84.6215 110.904ZM83.7795 110.507L81.9732 112.902L82.2204 113.088L82.5005 113.22L83.7795 110.507ZM81.6864 108.928L79.6287 111.111L79.7486 111.224L79.8801 111.324L81.6864 108.928ZM79.5896 106.952L81.6474 104.769L81.5874 104.712L81.5244 104.659L79.5896 106.952ZM73.4294 101.753L71.3904 103.954L71.4414 104.001L71.4946 104.046L73.4294 101.753ZM65.8099 94.6933L67.8489 92.4928L67.8489 92.4928L65.8099 94.6933ZM58.2016 94.7585L60.278 96.9238L60.278 96.9238L58.2016 94.7585ZM58.263 101.93L60.302 99.7298L60.302 99.7298L58.263 101.93ZM76.0556 118.417L79.0412 118.123L78.93 116.99L78.0946 116.216L76.0556 118.417ZM78.5673 144.001L75.5816 144.294L75.8474 147.001H78.5673V144.001ZM99.5283 144.001V147.001H102.36L102.523 144.174L99.5283 144.001ZM100.96 119.232L98.9212 117.031L98.0349 117.852L97.9651 119.058L100.96 119.232ZM117.549 96.8584C118.425 97.698 118.414 98.9696 117.524 99.7941L121.602 104.195C125.025 101.024 125.07 95.7573 121.702 92.5278L117.549 96.8584ZM113.982 96.7709C114.989 95.903 116.602 95.9497 117.549 96.8584L121.702 92.5278C118.514 89.471 113.407 89.3455 110.065 92.2257L113.982 96.7709ZM105.035 104.481L113.982 96.7709L110.065 92.2257L101.118 99.9357L105.035 104.481ZM98.43 111.028L105.187 104.341L100.966 100.076L94.2092 106.764L98.43 111.028ZM97.413 111.852L98.1728 111.255L94.4664 106.537L93.7066 107.133L97.413 111.852ZM93.5974 113.863C94.9803 113.429 96.2731 112.747 97.413 111.852L93.7066 107.133C93.1367 107.581 92.4903 107.922 91.7988 108.139L93.5974 113.863ZM92.6499 114.161L93.5974 113.863L91.7988 108.139L90.8513 108.437L92.6499 114.161ZM89.7772 114.646L92.2162 114.263L91.285 108.335L88.846 108.718L89.7772 114.646ZM89.1564 114.694C89.3643 114.694 89.5718 114.678 89.7772 114.646L88.8459 108.718C88.9487 108.702 89.0525 108.694 89.1564 108.694V114.694ZM88.3587 114.694H89.1564V108.694H88.3587V114.694ZM84.125 113.923C85.4782 114.433 86.9125 114.694 88.3587 114.694V108.694C87.6356 108.694 86.9184 108.563 86.2418 108.308L84.125 113.923ZM83.5631 113.711L84.125 113.923L86.2419 108.308L85.6799 108.097L83.5631 113.711ZM82.5005 113.22L83.3425 113.617L85.9005 108.19L85.0585 107.793L82.5005 113.22ZM85.5858 108.111L83.4927 106.533L79.8801 111.324L81.9732 112.902L85.5858 108.111ZM83.7442 106.745L81.6474 104.769L77.5319 109.135L79.6287 111.111L83.7442 106.745ZM81.5244 104.659L75.3641 99.4606L71.4946 104.046L77.6548 109.245L81.5244 104.659ZM75.4683 99.5528L67.8489 92.4928L63.7709 96.8939L71.3904 103.954L75.4683 99.5528ZM67.8489 92.4928C64.566 89.451 59.3554 89.4956 56.1251 92.5932L60.278 96.9238C61.2157 96.0246 62.8178 96.0108 63.7709 96.8939L67.8489 92.4928ZM56.1251 92.5932C52.795 95.7867 52.8397 100.995 56.224 104.131L60.302 99.7298C59.4505 98.9408 59.4401 97.7273 60.278 96.9238L56.1251 92.5932ZM56.224 104.131L74.0166 120.617L78.0946 116.216L60.302 99.7298L56.224 104.131ZM81.5529 143.708L79.0412 118.123L73.0699 118.71L75.5816 144.294L81.5529 143.708ZM89.0478 141.001H78.5673V147.001H89.0478V141.001ZM99.5283 141.001H89.0478V147.001H99.5283V141.001ZM97.9651 119.058L96.5333 143.828L102.523 144.174L103.955 119.405L97.9651 119.058ZM117.524 99.7941L98.9212 117.031L102.999 121.432L121.602 104.195L117.524 99.7941Z" fill="#71A691" mask="url(#path-6-inside-1_133_176)"/>
<path d="M141.774 69.5767C140.591 76.7557 133.81 81.6179 126.629 80.4361C119.448 79.2543 114.587 72.4763 115.77 65.2974C116.954 58.1184 123.735 53.2562 130.916 54.438C138.097 55.6197 142.958 62.3978 141.774 69.5767Z" fill="white" stroke="#71A691" stroke-width="3"/>
<path d="M38.7464 70.5207C40.1948 77.6506 47.1505 82.2571 54.283 80.8089C61.4154 79.3607 66.0226 72.4063 64.5741 65.2764C63.1257 58.1466 56.17 53.54 49.0375 54.9882C41.9051 56.4365 37.2979 63.3908 38.7464 70.5207Z" fill="white" stroke="#71A691" stroke-width="3"/>
<path d="M111.843 143.065L128.559 112.785C135.256 100.653 130.593 85.3907 118.26 79.0728V79.0728C108.368 74.0047 96.2372 77.9585 91.231 87.8827L88.9205 92.4629" stroke="#71A691" stroke-width="3" stroke-linecap="round"/>
<path d="M49.5762 113.446L50.906 112.752L50.906 112.752L49.5762 113.446ZM66.3769 142.386C66.7603 143.12 66.4757 144.026 65.7413 144.409C65.0068 144.792 64.1006 144.508 63.7172 143.773L66.3769 142.386ZM86.2594 87.2492L84.9936 88.0541L84.9936 88.0541L86.2594 87.2492ZM59.8556 80.2852L59.1514 78.9608L59.8556 80.2852ZM50.906 112.752L66.3769 142.386L63.7172 143.773L48.2463 114.14L50.906 112.752ZM87.503 91.9987L84.9936 88.0541L87.5252 86.4444L90.0345 90.389L87.503 91.9987ZM60.5598 81.6096C49.3323 87.5762 45.0219 101.481 50.906 112.752L48.2463 114.14C41.5995 101.408 46.4686 85.7007 59.1514 78.9608L60.5598 81.6096ZM59.1514 78.9608C69.1122 73.6673 81.4706 76.9268 87.5252 86.4444L84.9936 88.0541C79.7798 79.8581 69.1375 77.0512 60.5598 81.6096L59.1514 78.9608Z" fill="#71A691"/>
<path d="M111.843 143.065L128.559 112.785C135.255 100.653 130.593 85.3907 118.26 79.0728V79.0728C108.367 74.0047 96.2371 77.9585 91.2308 87.8827L88.9204 92.4629" stroke="#71A691" stroke-width="3" stroke-linecap="round"/>
<path d="M49.5763 113.446L50.9062 112.752L50.9062 112.752L49.5763 113.446ZM66.377 142.386C66.7604 143.12 66.4758 144.026 65.7414 144.409C65.0069 144.792 64.1007 144.508 63.7173 143.773L66.377 142.386ZM86.2595 87.2492L84.9937 88.0541L84.9937 88.0541L86.2595 87.2492ZM59.8557 80.2852L59.1515 78.9608L59.8557 80.2852ZM50.9062 112.752L66.377 142.386L63.7173 143.773L48.2465 114.14L50.9062 112.752ZM87.5031 91.9987L84.9937 88.0541L87.5253 86.4444L90.0347 90.389L87.5031 91.9987ZM60.5599 81.6096C49.3324 87.5762 45.022 101.481 50.9062 112.752L48.2465 114.14C41.5996 101.408 46.4687 85.7007 59.1515 78.9608L60.5599 81.6096ZM59.1515 78.9608C69.1123 73.6673 81.4707 76.9268 87.5253 86.4444L84.9937 88.0541C79.7799 79.8581 69.1376 77.0512 60.5599 81.6096L59.1515 78.9608Z" fill="#71A691"/>
<mask id="path-14-inside-2_133_176" fill="white">
<path fill-rule="evenodd" clip-rule="evenodd" d="M74.6808 50.5242C73.096 48.8134 72.2664 46.3817 72.2664 43.7979C72.2664 38.939 76.6212 35 81.9932 35C85.5112 35 88.593 36.6893 90.3012 39.2199C92.0094 36.6893 95.0911 35 98.6091 35C103.981 35 108.336 38.939 108.336 43.7979C108.336 45.8102 107.733 47.6497 106.645 49.1144C106.613 49.2295 106.564 49.3433 106.496 49.4531L105.615 50.6281L104.105 52.6257L102.091 55.2108L99.3222 58.2659L95.2129 62.3222C93.0041 64.5027 89.4967 64.6383 87.1256 62.635L81.9546 58.2659L78.4307 54.8583L76.2912 52.6257L74.9069 50.9806C74.8083 50.8334 74.7335 50.6802 74.6808 50.5242Z"/>
</mask>
<path fill-rule="evenodd" clip-rule="evenodd" d="M74.6808 50.5242C73.096 48.8134 72.2664 46.3817 72.2664 43.7979C72.2664 38.939 76.6212 35 81.9932 35C85.5112 35 88.593 36.6893 90.3012 39.2199C92.0094 36.6893 95.0911 35 98.6091 35C103.981 35 108.336 38.939 108.336 43.7979C108.336 45.8102 107.733 47.6497 106.645 49.1144C106.613 49.2295 106.564 49.3433 106.496 49.4531L105.615 50.6281L104.105 52.6257L102.091 55.2108L99.3222 58.2659L95.2129 62.3222C93.0041 64.5027 89.4967 64.6383 87.1256 62.635L81.9546 58.2659L78.4307 54.8583L76.2912 52.6257L74.9069 50.9806C74.8083 50.8334 74.7335 50.6802 74.6808 50.5242Z" fill="white"/>
<path d="M74.6808 50.5242L77.5224 49.5625L77.317 48.9556L76.8816 48.4856L74.6808 50.5242ZM90.3012 39.2199L87.8146 40.8983L90.3012 44.5822L92.7877 40.8983L90.3012 39.2199ZM106.645 49.1144L104.237 47.3256L103.907 47.7701L103.757 48.3032L106.645 49.1144ZM106.496 49.4531L108.896 51.2527L108.976 51.1455L109.047 51.0315L106.496 49.4531ZM105.615 50.6281L108.008 52.4374L108.015 52.4277L105.615 50.6281ZM104.105 52.6257L106.471 54.4692L106.485 54.4522L106.498 54.4349L104.105 52.6257ZM102.091 55.2108L104.314 57.2254L104.389 57.1425L104.458 57.0543L102.091 55.2108ZM99.3222 58.2659L101.43 60.401L101.489 60.3423L101.545 60.2805L99.3222 58.2659ZM95.2129 62.3222L97.3205 64.4573L97.3205 64.4573L95.2129 62.3222ZM87.1256 62.635L89.0618 60.3434L89.0618 60.3434L87.1256 62.635ZM81.9546 58.2659L79.8691 60.4225L79.9415 60.4925L80.0184 60.5575L81.9546 58.2659ZM78.4307 54.8583L76.2647 56.934L76.3042 56.9752L76.3453 57.0149L78.4307 54.8583ZM76.2912 52.6257L73.9959 54.5573L74.0582 54.6315L74.1252 54.7014L76.2912 52.6257ZM74.9069 50.9806L72.4139 52.6495L72.5055 52.7863L72.6115 52.9123L74.9069 50.9806ZM76.8816 48.4856C75.9033 47.4293 75.2664 45.774 75.2664 43.7979H69.2664C69.2664 46.9893 70.2888 50.1975 72.4799 52.5629L76.8816 48.4856ZM75.2664 43.7979C75.2664 40.872 77.9877 38 81.9932 38V32C75.2548 32 69.2664 37.0059 69.2664 43.7979H75.2664ZM81.9932 38C84.5597 38 86.6892 39.231 87.8146 40.8983L92.7877 37.5415C90.4969 34.1476 86.4628 32 81.9932 32V38ZM92.7877 40.8983C93.9132 39.231 96.0427 38 98.6091 38V32C94.1396 32 90.1055 34.1476 87.8146 37.5415L92.7877 40.8983ZM98.6091 38C102.615 38 105.336 40.872 105.336 43.7979H111.336C111.336 37.0059 105.348 32 98.6091 32V38ZM105.336 43.7979C105.336 45.2055 104.918 46.4091 104.237 47.3256L109.054 50.9032C110.549 48.8903 111.336 46.4149 111.336 43.7979H105.336ZM103.757 48.3032C103.801 48.147 103.865 48.0026 103.945 47.8746L109.047 51.0315C109.262 50.6839 109.425 50.312 109.534 49.9256L103.757 48.3032ZM104.095 47.6535L103.214 48.8286L108.015 52.4277L108.896 51.2527L104.095 47.6535ZM103.222 48.8189L101.711 50.8165L106.498 54.4349L108.008 52.4374L103.222 48.8189ZM101.738 50.7822L99.7242 53.3673L104.458 57.0543L106.471 54.4692L101.738 50.7822ZM99.868 53.1962L97.0992 56.2514L101.545 60.2805L104.314 57.2254L99.868 53.1962ZM97.2146 56.1309L93.1054 60.1872L97.3205 64.4573L101.43 60.401L97.2146 56.1309ZM93.1054 60.1872C92.0012 61.2772 90.2475 61.3453 89.0618 60.3434L85.1894 64.9266C88.7458 67.9314 94.0069 67.7281 97.3205 64.4573L93.1054 60.1872ZM89.0618 60.3434L83.8907 55.9744L80.0184 60.5575L85.1894 64.9266L89.0618 60.3434ZM84.04 56.1093L80.5162 52.7017L76.3453 57.0149L79.8691 60.4225L84.04 56.1093ZM80.5967 52.7826L78.4572 50.55L74.1252 54.7014L76.2647 56.934L80.5967 52.7826ZM78.5866 50.6941L77.2022 49.049L72.6115 52.9123L73.9959 54.5573L78.5866 50.6941ZM77.3999 49.3118C77.4475 49.383 77.4902 49.4673 77.5224 49.5625L71.8391 51.486C71.9769 51.893 72.1692 52.2839 72.4139 52.6495L77.3999 49.3118Z" fill="#71A691" mask="url(#path-14-inside-2_133_176)"/>
<path d="M65.0471 143.08H88.5312H111.596" stroke="#71A691" stroke-width="3" stroke-linecap="round"/>
</svg>
