<svg width="180" height="180" viewBox="0 0 180 180" fill="none" xmlns="http://www.w3.org/2000/svg">
<circle cx="90" cy="90" r="90" fill="#E6F0EC"/>
<rect x="43" y="66" width="47" height="65" fill="white"/>
<rect x="96" y="94" width="37" height="58" transform="rotate(90 96 94)" fill="white"/>
<ellipse cx="66.5" cy="68.5" rx="24.5" ry="25.5" fill="white"/>
<path d="M42.8914 93.4266V65.6296C42.8914 52.5793 53.4707 42 66.5209 42V42C79.5712 42 90.1505 52.5793 90.1505 65.6296V93.4266" stroke="#71A691" stroke-width="2.5" stroke-linecap="round"/>
<path d="M54.7061 93.426V93.426C51.2191 89.8105 49.2706 84.9834 49.2706 79.9604L49.2706 68.8724C49.2706 68.3211 49.6011 67.8235 50.1093 67.6096L53.2025 66.308C57.0763 64.6779 60.5848 62.2893 63.5216 59.2828L65.6948 57.058C66.2193 56.521 67.0783 56.5062 67.6212 57.0247L70.9187 60.1746C73.4577 62.5999 76.3841 64.5837 79.5771 66.0442L83.0124 67.6155C83.4746 67.827 83.7711 68.2885 83.7711 68.7968V79.18C83.7711 84.6482 81.3957 89.8467 77.2616 93.426V93.426" stroke="#71A691" stroke-width="2.5" stroke-linecap="round"/>
<path d="M57.928 72.9971V77.9284" stroke="#71A691" stroke-width="2.5" stroke-linecap="round"/>
<path d="M75.1123 72.9971V77.9284" stroke="#71A691" stroke-width="2.5" stroke-linecap="round"/>
<g style="mix-blend-mode:darken">
<path d="M62.2267 85.6768V85.6768C64.8665 88.0741 68.8955 88.0741 71.5353 85.6768V85.6768" stroke="#71A691" stroke-width="2.5" stroke-linecap="round"/>
</g>
<path d="M84.4221 75.1104H85.5483C87.2991 75.1104 88.7184 76.5297 88.7184 78.2805V78.2805C88.7184 80.0313 87.2991 81.4506 85.5483 81.4506H84.4221" stroke="#71A691" stroke-width="2.5" stroke-linecap="round"/>
<path d="M48.62 75.1104H47.4938C45.743 75.1104 44.3237 76.5297 44.3237 78.2805V78.2805C44.3237 80.0313 45.743 81.4506 47.4938 81.4506H48.62" stroke="#71A691" stroke-width="2.5" stroke-linecap="round"/>
<path d="M37.9207 105.743C37.9207 104.576 37.8639 100.302 37.8763 96.7496C37.8827 94.8979 39.3931 93.4268 41.2448 93.4268H92.5412C94.4328 93.4268 95.9662 94.9602 95.9662 96.8518V126.185M37.9207 113.638V126.185" stroke="#71A691" stroke-width="2.5" stroke-linecap="round"/>
<path d="M70.9939 110.334C70.9939 112.348 69.3287 114.015 67.2316 114.015C65.1344 114.015 63.4692 112.348 63.4692 110.334C63.4692 108.32 65.1344 106.652 67.2316 106.652C69.3287 106.652 70.9939 108.32 70.9939 110.334Z" stroke="#71A691" stroke-width="2.5"/>
<rect x="31.25" y="127.25" width="117.5" height="7.5" rx="2.17506" fill="white" stroke="#71A691" stroke-width="2.5"/>
<mask id="path-15-inside-1_133_217" fill="white">
<path fill-rule="evenodd" clip-rule="evenodd" d="M104.769 65.2221C106.514 53.677 117.44 45.7192 129.173 47.4479C140.906 49.1766 149.003 59.9372 147.258 71.4824C145.513 83.0275 134.587 90.9853 122.854 89.2566C118.56 88.6239 114.753 86.7815 111.737 84.1336L105.755 85.7656C104.666 86.0625 103.76 84.8912 104.243 83.8119L106.875 77.9308C104.912 74.1453 104.086 69.7439 104.769 65.2221Z"/>
</mask>
<path fill-rule="evenodd" clip-rule="evenodd" d="M104.769 65.2221C106.514 53.677 117.44 45.7192 129.173 47.4479C140.906 49.1766 149.003 59.9372 147.258 71.4824C145.513 83.0275 134.587 90.9853 122.854 89.2566C118.56 88.6239 114.753 86.7815 111.737 84.1336L105.755 85.7656C104.666 86.0625 103.76 84.8912 104.243 83.8119L106.875 77.9308C104.912 74.1453 104.086 69.7439 104.769 65.2221Z" fill="white"/>
<path d="M111.737 84.1336L111.086 81.7234L112.384 81.3692L113.392 82.2543L111.737 84.1336ZM105.755 85.7656L105.104 83.3554L105.104 83.3554L105.755 85.7656ZM104.243 83.8119L101.96 82.799L101.96 82.799L104.243 83.8119ZM106.875 77.9308L109.097 76.7753L109.651 77.843L109.158 78.9438L106.875 77.9308ZM128.8 49.9198C118.396 48.387 108.776 55.4428 107.243 65.5865L102.296 64.8577C104.253 51.9112 116.485 43.0514 129.547 44.976L128.8 49.9198ZM144.785 71.118C146.318 60.9742 139.203 51.4527 128.8 49.9198L129.547 44.976C142.61 46.9006 151.688 58.9002 149.732 71.8468L144.785 71.118ZM123.228 86.7847C133.631 88.3175 143.252 81.2617 144.785 71.118L149.732 71.8468C147.775 84.7933 135.543 93.6531 122.481 91.7285L123.228 86.7847ZM113.392 82.2543C116.057 84.5935 119.422 86.2239 123.228 86.7847L122.481 91.7285C117.699 91.024 113.45 88.9694 110.082 86.0129L113.392 82.2543ZM105.104 83.3554L111.086 81.7234L112.388 86.5438L106.406 88.1758L105.104 83.3554ZM106.526 84.8249C106.683 84.4757 106.618 84.0662 106.391 83.7726C106.154 83.466 105.654 83.2055 105.104 83.3554L106.406 88.1758C104.768 88.6227 103.27 87.9249 102.429 86.8371C101.597 85.7623 101.321 84.2274 101.96 82.799L106.526 84.8249ZM109.158 78.9438L106.526 84.8249L101.96 82.799L104.592 76.9179L109.158 78.9438ZM107.243 65.5865C106.641 69.5673 107.367 73.4385 109.097 76.7753L104.653 79.0863C102.458 74.852 101.531 69.9204 102.296 64.8577L107.243 65.5865Z" fill="#71A691" mask="url(#path-15-inside-1_133_217)"/>
<line x1="1.25" y1="-1.25" x2="16.6512" y2="-1.25" transform="matrix(-1 0 0 1 135.258 62.8394)" stroke="#71A691" stroke-width="2.5" stroke-linecap="round"/>
<line x1="1.25" y1="-1.25" x2="16.6512" y2="-1.25" transform="matrix(-1 0 0 1 135.258 68.8394)" stroke="#71A691" stroke-width="2.5" stroke-linecap="round"/>
<line x1="1.25" y1="-1.25" x2="16.6512" y2="-1.25" transform="matrix(-1 0 0 1 135.258 74.8394)" stroke="#71A691" stroke-width="2.5" stroke-linecap="round"/>
</svg>
