<svg width="180" height="180" viewBox="0 0 180 180" fill="none" xmlns="http://www.w3.org/2000/svg">
<circle cx="90" cy="90" r="90" fill="#E6F0EC"/>
<path d="M73 106H106.5L99.5 124.5L90.5 125L83 124.5L73 106Z" fill="white"/>
<path d="M81.4994 130H99.9994V138L90.9994 143.5L81.9994 138L81.4994 130Z" fill="white"/>
<circle cx="89.9994" cy="82" r="30" fill="white"/>
<path d="M71.2368 105.577V105.577C65.2318 100.511 61.3652 93.3618 60.4136 85.5644L59.9706 81.934C59.9706 64.0822 73.1498 51.6264 89.8431 51.7374C106.536 51.8484 119.982 64.8354 119.874 81.934C119.812 91.7851 116.577 97.9772 108.608 105.577" stroke="#71A691" stroke-width="3"/>
<path d="M108.786 105.392C101.501 113.321 100.249 121.251 100.035 123.74C99.9963 124.184 99.6292 124.539 99.1842 124.539H82.3668C81.9217 124.539 81.5537 124.184 81.5094 123.741C81.2564 121.213 79.7622 113.096 70.9359 105.392" stroke="#71A691" stroke-width="3"/>
<mask id="path-7-inside-1_133_242" fill="white">
<path fill-rule="evenodd" clip-rule="evenodd" d="M74.7237 83.3644C73.3384 81.7094 72.6145 79.4251 72.6145 77.004C72.6145 72.2664 76.7283 68.4258 81.8029 68.4258C85.1266 68.4258 88.0382 70.0734 89.6516 72.5414C91.2651 70.0734 94.1766 68.4258 97.5004 68.4258C102.575 68.4258 106.689 72.2664 106.689 77.004C106.689 78.9669 106.119 80.7613 105.09 82.1897C105.06 82.301 105.014 82.4114 104.95 82.518L104.117 83.6637L102.691 85.6114L100.789 88.132L98.1733 91.1108L92.7356 96.6511C91.5402 97.869 89.6028 97.9441 88.3166 96.8225L81.7672 91.1108L78.4384 87.7883L76.4174 85.6114L75.1096 84.0075L74.8623 83.6261C74.807 83.5408 74.7609 83.4533 74.7237 83.3644Z"/>
</mask>
<path fill-rule="evenodd" clip-rule="evenodd" d="M74.7237 83.3644C73.3384 81.7094 72.6145 79.4251 72.6145 77.004C72.6145 72.2664 76.7283 68.4258 81.8029 68.4258C85.1266 68.4258 88.0382 70.0734 89.6516 72.5414C91.2651 70.0734 94.1766 68.4258 97.5004 68.4258C102.575 68.4258 106.689 72.2664 106.689 77.004C106.689 78.9669 106.119 80.7613 105.09 82.1897C105.06 82.301 105.014 82.4114 104.95 82.518L104.117 83.6637L102.691 85.6114L100.789 88.132L98.1733 91.1108L92.7356 96.6511C91.5402 97.869 89.6028 97.9441 88.3166 96.8225L81.7672 91.1108L78.4384 87.7883L76.4174 85.6114L75.1096 84.0075L74.8623 83.6261C74.807 83.5408 74.7609 83.4533 74.7237 83.3644Z" fill="white"/>
<path d="M74.7237 83.3644L77.4907 82.2051L77.3154 81.7867L77.0242 81.4388L74.7237 83.3644ZM89.6516 72.5414L87.1406 74.183L89.6516 78.0241L92.1627 74.183L89.6516 72.5414ZM105.09 82.1897L102.656 80.4366L102.337 80.8786L102.195 81.4041L105.09 82.1897ZM104.95 82.518L107.377 84.2811L107.455 84.174L107.523 84.0604L104.95 82.518ZM104.117 83.6637L106.538 85.4365L106.545 85.4268L104.117 83.6637ZM102.691 85.6114L105.086 87.4186L105.098 87.4015L105.111 87.3842L102.691 85.6114ZM100.789 88.132L103.043 90.1113L103.116 90.0278L103.183 89.9391L100.789 88.132ZM98.1733 91.1108L100.314 93.2122L100.373 93.1528L100.428 93.0902L98.1733 91.1108ZM92.7356 96.6511L94.8766 98.7525L94.8766 98.7525L92.7356 96.6511ZM88.3166 96.8225L86.3448 99.0835L86.3448 99.0835L88.3166 96.8225ZM81.7672 91.1108L79.6478 93.2341L79.7193 93.3054L79.7954 93.3718L81.7672 91.1108ZM78.4384 87.7883L76.2399 89.8295L76.2787 89.8713L76.3191 89.9116L78.4384 87.7883ZM76.4174 85.6114L74.0922 87.5071L74.1532 87.5819L74.2188 87.6526L76.4174 85.6114ZM75.1096 84.0075L72.5926 85.6398L72.6814 85.7767L72.7845 85.9032L75.1096 84.0075ZM74.8623 83.6261L77.3793 81.9937L77.3793 81.9937L74.8623 83.6261ZM77.0242 81.4388C76.1738 80.4228 75.6145 78.8621 75.6145 77.004H69.6145C69.6145 79.9881 70.5031 82.996 72.4232 85.2899L77.0242 81.4388ZM75.6145 77.004C75.6145 74.1141 78.1876 71.4258 81.8029 71.4258V65.4258C75.2689 65.4258 69.6145 70.4187 69.6145 77.004H75.6145ZM81.8029 71.4258C84.1331 71.4258 86.0916 72.5783 87.1406 74.183L92.1627 70.8999C89.9847 67.5684 86.1202 65.4258 81.8029 65.4258V71.4258ZM92.1627 74.183C93.2117 72.5783 95.1702 71.4258 97.5004 71.4258V65.4258C93.1831 65.4258 89.3185 67.5684 87.1406 70.8999L92.1627 74.183ZM97.5004 71.4258C101.116 71.4258 103.689 74.1141 103.689 77.004H109.689C109.689 70.4187 104.034 65.4258 97.5004 65.4258V71.4258ZM103.689 77.004C103.689 78.384 103.29 79.5551 102.656 80.4366L107.525 83.9427C108.947 81.9674 109.689 79.5499 109.689 77.004H103.689ZM102.195 81.4041C102.237 81.2485 102.299 81.1043 102.377 80.9757L107.523 84.0604C107.728 83.7184 107.883 83.3535 107.986 82.9752L102.195 81.4041ZM102.522 80.755L101.69 81.9007L106.545 85.4268L107.377 84.2811L102.522 80.755ZM101.697 81.891L100.271 83.8387L105.111 87.3842L106.538 85.4365L101.697 81.891ZM100.296 83.8043L98.3941 86.3248L103.183 89.9391L105.086 87.4186L100.296 83.8043ZM98.5344 86.1526L95.9189 89.1314L100.428 93.0902L103.043 90.1113L98.5344 86.1526ZM96.0322 89.0094L90.5945 94.5497L94.8766 98.7525L100.314 93.2122L96.0322 89.0094ZM90.5945 94.5497C90.5118 94.634 90.3776 94.6393 90.2884 94.5615L86.3448 99.0835C88.8279 101.249 92.5686 101.104 94.8766 98.7525L90.5945 94.5497ZM90.2884 94.5615L83.7389 88.8498L79.7954 93.3718L86.3448 99.0835L90.2884 94.5615ZM83.8865 88.9875L80.5577 85.665L76.3191 89.9116L79.6478 93.2341L83.8865 88.9875ZM80.6369 85.7471L78.6159 83.5702L74.2188 87.6526L76.2399 89.8295L80.6369 85.7471ZM78.7425 83.7157L77.4348 82.1118L72.7845 85.9032L74.0922 87.5071L78.7425 83.7157ZM77.6266 82.3751L77.3793 81.9937L72.3453 85.2585L72.5926 85.6398L77.6266 82.3751ZM77.3793 81.9937C77.4207 82.0576 77.4585 82.1283 77.4907 82.2051L71.9567 84.5236C72.0634 84.7783 72.1933 85.0241 72.3453 85.2585L77.3793 81.9937Z" fill="#71A691" mask="url(#path-7-inside-1_133_242)"/>
<mask id="path-9-inside-2_133_242" fill="white">
<path fill-rule="evenodd" clip-rule="evenodd" d="M81.7504 129.186C82.4179 129.186 82.9591 129.727 82.9591 130.394V137.506L90.7623 142.428L98.5655 137.506V131.603H87.6491C86.9815 131.603 86.4404 131.062 86.4404 130.394C86.4404 129.727 86.9815 129.186 87.6491 129.186H98.9684C100.081 129.186 100.983 130.088 100.983 131.2V137.728C100.983 138.42 100.628 139.063 100.043 139.432L91.8371 144.608C91.1804 145.023 90.3442 145.023 89.6876 144.608L81.4814 139.432C80.8964 139.063 80.5416 138.42 80.5416 137.728V130.394C80.5416 129.727 81.0828 129.186 81.7504 129.186Z"/>
</mask>
<path fill-rule="evenodd" clip-rule="evenodd" d="M81.7504 129.186C82.4179 129.186 82.9591 129.727 82.9591 130.394V137.506L90.7623 142.428L98.5655 137.506V131.603H87.6491C86.9815 131.603 86.4404 131.062 86.4404 130.394C86.4404 129.727 86.9815 129.186 87.6491 129.186H98.9684C100.081 129.186 100.983 130.088 100.983 131.2V137.728C100.983 138.42 100.628 139.063 100.043 139.432L91.8371 144.608C91.1804 145.023 90.3442 145.023 89.6876 144.608L81.4814 139.432C80.8964 139.063 80.5416 138.42 80.5416 137.728V130.394C80.5416 129.727 81.0828 129.186 81.7504 129.186Z" fill="white"/>
<path d="M82.9591 137.506H79.9591V139.161L81.3586 140.044L82.9591 137.506ZM90.7623 142.428L89.1618 144.965L90.7623 145.975L92.3628 144.965L90.7623 142.428ZM98.5655 137.506L100.166 140.044L101.566 139.161V137.506H98.5655ZM98.5655 131.603H101.566V128.603H98.5655V131.603ZM100.043 139.432L101.644 141.97L101.644 141.97L100.043 139.432ZM91.8371 144.608L93.4376 147.146L93.4376 147.146L91.8371 144.608ZM89.6876 144.608L91.288 142.071L91.288 142.071L89.6876 144.608ZM81.4814 139.432L83.0819 136.895L83.0819 136.895L81.4814 139.432ZM85.9591 130.394C85.9591 128.07 84.0748 126.186 81.7504 126.186V132.186C80.7611 132.186 79.9591 131.384 79.9591 130.394H85.9591ZM85.9591 137.506V130.394H79.9591V137.506H85.9591ZM92.3628 139.891L84.5596 134.969L81.3586 140.044L89.1618 144.965L92.3628 139.891ZM96.965 134.969L89.1618 139.891L92.3628 144.965L100.166 140.044L96.965 134.969ZM95.5655 131.603V137.506H101.566V131.603H95.5655ZM87.6491 134.603H98.5655V128.603H87.6491V134.603ZM83.4404 130.394C83.4404 132.719 85.3247 134.603 87.6491 134.603V128.603C88.6384 128.603 89.4404 129.405 89.4404 130.394H83.4404ZM87.6491 126.186C85.3247 126.186 83.4404 128.07 83.4404 130.394H89.4404C89.4404 131.384 88.6384 132.186 87.6491 132.186V126.186ZM98.9684 126.186H87.6491V132.186H98.9684V126.186ZM103.983 131.2C103.983 128.431 101.738 126.186 98.9684 126.186V132.186C98.4242 132.186 97.983 131.744 97.983 131.2H103.983ZM103.983 137.728V131.2H97.983V137.728H103.983ZM101.644 141.97C103.1 141.051 103.983 139.45 103.983 137.728H97.983C97.983 137.39 98.1566 137.075 98.4427 136.895L101.644 141.97ZM93.4376 147.146L101.644 141.97L98.4427 136.895L90.2366 142.071L93.4376 147.146ZM88.0871 147.146C89.7216 148.177 91.8031 148.177 93.4376 147.146L90.2366 142.071C90.5578 141.868 90.9668 141.868 91.288 142.071L88.0871 147.146ZM79.881 141.97L88.0871 147.146L91.288 142.071L83.0819 136.895L79.881 141.97ZM77.5416 137.728C77.5416 139.45 78.4248 141.051 79.881 141.97L83.0819 136.895C83.3681 137.075 83.5416 137.39 83.5416 137.728H77.5416ZM77.5416 130.394V137.728H83.5416V130.394H77.5416ZM81.7504 126.186C79.4259 126.186 77.5416 128.07 77.5416 130.394H83.5416C83.5416 131.384 82.7397 132.186 81.7504 132.186V126.186Z" fill="#71A691" mask="url(#path-9-inside-2_133_242)"/>
<line x1="1.5" y1="-1.5" x2="13.5176" y2="-1.5" transform="matrix(0.981271 -0.192632 0.194151 0.980972 39.9958 92.2539)" stroke="#71A691" stroke-width="3" stroke-linecap="round"/>
<line x1="1.5" y1="-1.5" x2="13.5179" y2="-1.5" transform="matrix(0.983843 0.179034 -0.180454 0.983583 38.8978 69.2861)" stroke="#71A691" stroke-width="3" stroke-linecap="round"/>
<line x1="1.5" y1="-1.5" x2="13.4965" y2="-1.5" transform="matrix(0.786482 0.617613 -0.620729 0.784025 47.8053 46.7539)" stroke="#71A691" stroke-width="3" stroke-linecap="round"/>
<line x1="1.5" y1="-1.5" x2="13.4768" y2="-1.5" transform="matrix(0.543952 0.839116 -0.841133 0.540828 65.8295 35.3848)" stroke="#71A691" stroke-width="3" stroke-linecap="round"/>
<line x1="1.5" y1="-1.5" x2="13.4587" y2="-1.5" transform="matrix(0.00814251 0.999967 -0.999967 0.00807632 89.2595 30)" stroke="#71A691" stroke-width="3" stroke-linecap="round"/>
<line x1="1.5" y1="-1.5" x2="13.466" y2="-1.5" transform="matrix(-0.346198 0.938161 -0.939073 -0.343718 111.488 34.1885)" stroke="#71A691" stroke-width="3" stroke-linecap="round"/>
<line x1="1.5" y1="-1.5" x2="13.4896" y2="-1.5" transform="matrix(-0.71104 0.703151 -0.706047 -0.708165 126.813 45.5566)" stroke="#71A691" stroke-width="3" stroke-linecap="round"/>
<line x1="1.5" y1="-1.5" x2="13.5066" y2="-1.5" transform="matrix(-0.884795 0.465981 -0.468962 -0.883218 137.957 63.5078)" stroke="#71A691" stroke-width="3" stroke-linecap="round"/>
<line x1="1.5" y1="-1.5" x2="13.519" y2="-1.5" transform="matrix(-0.992709 -0.120532 0.121506 -0.992591 142.061 91.125)" stroke="#71A691" stroke-width="3" stroke-linecap="round"/>
</svg>
